<?xml version="1.0" encoding="UTF-8"?>
<svg version="1.1" xmlns="http://www.w3.org/2000/svg" width="384" height="108">
<path d="M0 0 C126.72 0 253.44 0 384 0 C384 35.64 384 71.28 384 108 C257.28 108 130.56 108 0 108 C0 72.36 0 36.72 0 0 Z " fill="#FCFDFD" transform="translate(0,0)"/>
<path d="M0 0 C0 4.62 0 9.24 0 14 C-1.815 14.680625 -3.63 15.36125 -5.5 16.0625 C-16.18224768 20.56691068 -19.58571455 25.17142909 -25 36 C-16.75 36 -8.5 36 0 36 C0 40.62 0 45.24 0 50 C-8.25 50 -16.5 50 -25 50 C-21.75335348 59.73993956 -19.05287618 65.85371361 -10.1015625 70.96875 C-6.80891971 72.58447063 -3.47294949 73.82167785 0 75 C0 79.29 0 83.58 0 88 C-10.48601252 87.79027975 -20.40612652 81.9469094 -28 75 C-36.90396995 64.52991676 -41.0409751 52.68689489 -40 39 C-38.68941422 30.58115238 -35.82253919 23.98169213 -31 17 C-30.4225 16.113125 -29.845 15.22625 -29.25 14.3125 C-21.74303505 6.59700825 -10.99086253 0 0 0 Z " fill="#48557E" transform="translate(46,5)"/>
<path d="M0 0 C13.54992514 1.00369816 23.42343574 7.34491369 32.171875 17.48828125 C39.64658551 27.75802239 41.00433565 38.69073092 40 51 C37.78716398 62.96195929 32.51172613 71.58085362 23 79 C24.0354347 81.7877088 25.06506423 84.09527263 26.75 86.5625 C28 89 28 89 27.3671875 90.98046875 C24.87559627 94.66090493 20.88340802 96.00281873 17 98 C14.69 94.37 12.38 90.74 10 87 C5.05 87.495 5.05 87.495 0 88 C0 83.71 0 79.42 0 75 C2.6915625 74.01 2.6915625 74.01 5.4375 73 C14.11859704 69.32486576 20.03955615 64.86267501 24.0625 56.1875 C27.26053405 47.3595935 27.06882796 39.8429355 23.19921875 31.2890625 C19.66984501 24.55221229 15.93568157 19.67273099 8.4296875 17.12890625 C6.65155177 16.59951826 4.86644243 16.09281494 3.07421875 15.61328125 C1 15 1 15 0 14 C-0.07271741 11.64686445 -0.08370868 9.29166332 -0.0625 6.9375 C-0.05347656 5.64714844 -0.04445312 4.35679688 -0.03515625 3.02734375 C-0.02355469 2.02832031 -0.01195312 1.02929688 0 0 Z " fill="#43507A" transform="translate(54,5)"/>
<path d="M0 0 C1.98 0 3.96 0 6 0 C6.06058594 1.21558594 6.12117188 2.43117187 6.18359375 3.68359375 C6.26798332 5.26824228 6.3526321 6.85287702 6.4375 8.4375 C6.47681641 9.23994141 6.51613281 10.04238281 6.55664062 10.86914062 C6.4054296 14.75239561 6.4054296 14.75239561 8 18 C10.97 18.33 13.94 18.66 17 19 C17 12.73 17 6.46 17 0 C19.31 0 21.62 0 24 0 C24 6.27 24 12.54 24 19 C30.4 18.8 30.4 18.8 32 17 C32.23701239 14.14122091 32.42219182 11.30116703 32.5625 8.4375 C32.62727539 7.22803711 32.62727539 7.22803711 32.69335938 5.99414062 C32.79975262 3.99631195 32.90040888 1.9981793 33 0 C34.98 0 36.96 0 39 0 C39.495 8.91 39.495 8.91 40 18 C41.98 18 43.96 18 46 18 C48.11925604 15.88074396 47.41831017 11.3803907 47.5625 8.4375 C47.62727539 7.22803711 47.62727539 7.22803711 47.69335938 5.99414062 C47.79975262 3.99631195 47.90040888 1.9981793 48 0 C49.98 0 51.96 0 54 0 C54.06058594 1.13179687 54.12117188 2.26359375 54.18359375 3.4296875 C54.26799917 4.91147145 54.35264717 6.3932416 54.4375 7.875 C54.47681641 8.62136719 54.51613281 9.36773437 54.55664062 10.13671875 C54.71573624 14.19986864 54.71573624 14.19986864 56 18 C57.95766281 18.08082094 59.91626728 18.13910778 61.875 18.1875 C62.96554688 18.22230469 64.05609375 18.25710937 65.1796875 18.29296875 C66.11039062 18.19628906 67.04109375 18.09960938 68 18 C70.40119059 14.39821412 70.43771322 11.49133631 70.625 7.3125 C70.66367188 6.61060547 70.70234375 5.90871094 70.7421875 5.18554688 C70.8362334 3.45745345 70.9191968 1.72876325 71 0 C72.98 0 74.96 0 77 0 C77.08152344 2.54232342 77.14073716 5.08199202 77.1875 7.625 C77.21263672 8.33785156 77.23777344 9.05070312 77.26367188 9.78515625 C77.32976869 14.58819131 76.77120098 17.9003057 74 22 C70.12340238 25.19684699 66.93461374 25.38162713 62 25.3125 C60.80375 25.30863281 59.6075 25.30476563 58.375 25.30078125 C55 25 55 25 52.25 23.85546875 C51.5075 23.57316406 50.765 23.29085937 50 23 C49.01 23.66 48.02 24.32 47 25 C41.97460788 25.46531409 39.09421161 24.97760844 35 22 C34.1790686 22.73126099 34.1790686 22.73126099 33.34155273 23.47729492 C30.50042544 25.32487191 28.89944442 25.37380799 25.53515625 25.36328125 C24.48779297 25.36263672 23.44042969 25.36199219 22.36132812 25.36132812 C20.7284082 25.3371582 20.7284082 25.3371582 19.0625 25.3125 C17.43538086 25.31733398 17.43538086 25.31733398 15.77539062 25.32226562 C7.62180607 25.26713998 7.62180607 25.26713998 4.33764648 23.85620117 C3.56622314 23.57365479 2.7947998 23.2911084 2 23 C1.01 23.66 0.02 24.32 -1 25 C-5.42156964 25.49736219 -9.86600816 25.41662445 -14.3125 25.4375 C-15.53646484 25.47037109 -16.76042969 25.50324219 -18.02148438 25.53710938 C-28.10204707 25.59740638 -28.10204707 25.59740638 -31.73046875 22.72265625 C-35.38395611 18.33972907 -36.26147764 15.98206071 -36.125 10.25 C-36.09792969 8.77273437 -36.09792969 8.77273437 -36.0703125 7.265625 C-36.04710938 6.51796875 -36.02390625 5.7703125 -36 5 C-34.02 5 -32.04 5 -30 5 C-29.83564453 6.26457031 -29.83564453 6.26457031 -29.66796875 7.5546875 C-29.50941406 8.65039062 -29.35085937 9.74609375 -29.1875 10.875 C-29.03667969 11.96554688 -28.88585937 13.05609375 -28.73046875 14.1796875 C-28.25334259 17.31238846 -28.25334259 17.31238846 -25 19 C-21.51427072 19.43111757 -18.00953857 19.32424544 -14.5 19.3125 C-13.05560547 19.33666992 -13.05560547 19.33666992 -11.58203125 19.36132812 C-10.65777344 19.36197266 -9.73351562 19.36261719 -8.78125 19.36328125 C-7.93626953 19.36626221 -7.09128906 19.36924316 -6.22070312 19.37231445 C-3.48099683 18.91298595 -2.61116664 18.2398757 -1 16 C-0.62325482 13.20748417 -0.39808059 10.61220799 -0.3125 7.8125 C-0.27833984 7.06291016 -0.24417969 6.31332031 -0.20898438 5.54101562 C-0.12665706 3.69453162 -0.06164719 1.84729006 0 0 Z " fill="#A3A7AF" transform="translate(145,38)"/>
<path d="M0 0 C2.475 0.99 2.475 0.99 5 2 C3.50923566 5.2826932 1.61379679 7.93077441 -0.625 10.75 C-1.25664062 11.54921875 -1.88828125 12.3484375 -2.5390625 13.171875 C-3.02117187 13.77515625 -3.50328125 14.3784375 -4 15 C-2.1746875 14.87625 -2.1746875 14.87625 -0.3125 14.75 C3.0726174 14.73799604 3.93868234 14.96086107 6.9375 16.875 C10.49782701 20.54321571 10.39445717 23.5684396 10.3515625 28.515625 C10 31 10 31 7.75 34.0625 C3.67038291 36.93677568 0.50214653 37.12501193 -4.421875 37.09765625 C-5.44667969 37.09443359 -6.47148437 37.09121094 -7.52734375 37.08789062 C-8.59082031 37.07951172 -9.65429688 37.07113281 -10.75 37.0625 C-11.82894531 37.05798828 -12.90789062 37.05347656 -14.01953125 37.04882812 C-16.67974383 37.03705727 -19.33984365 37.02061399 -22 37 C-22.11601562 37.76828125 -22.23203125 38.5365625 -22.3515625 39.328125 C-23.24797296 43.0217681 -25.15697073 44.56311777 -28 47 C-31.42232972 48.14077657 -34.08673217 48.09815117 -37.6875 48.0625 C-39.45673828 48.04896484 -39.45673828 48.04896484 -41.26171875 48.03515625 C-42.16535156 48.02355469 -43.06898438 48.01195312 -44 48 C-44 46.35 -44 44.7 -44 43 C-43.33613281 42.96261719 -42.67226562 42.92523438 -41.98828125 42.88671875 C-35.01433671 42.39055034 -35.01433671 42.39055034 -29 39 C-28.67 38.34 -28.34 37.68 -28 37 C-28.88751953 37.05220703 -28.88751953 37.05220703 -29.79296875 37.10546875 C-34.67278653 37.27264032 -38.16304936 37.38554469 -42 34 C-45.22883266 29.21242054 -45.53256641 25.59194732 -45 20 C-43.33609222 16.2562075 -41.43970188 14.17501576 -38 12 C-33.19993248 11.13364635 -29.19532542 11.27782423 -25 13.8125 C-21.2267856 17.93945325 -20.76607051 20.1865606 -20.875 25.6875 C-20.89304688 26.86699219 -20.91109375 28.04648437 -20.9296875 29.26171875 C-20.95289063 30.16535156 -20.97609375 31.06898437 -21 32 C-17.56183853 31.8901717 -14.12477652 31.75953137 -10.6875 31.625 C-9.22280273 31.57859375 -9.22280273 31.57859375 -7.72851562 31.53125 C-6.79072266 31.49257813 -5.85292969 31.45390625 -4.88671875 31.4140625 C-4.02264404 31.3826416 -3.15856934 31.3512207 -2.26831055 31.31884766 C0.27742445 31.12811963 0.27742445 31.12811963 3 29 C3.25015873 25.41642759 3.25015873 25.41642759 3 22 C0.0384304 20.5192152 -2.83506295 20.64685963 -6.125 20.4375 C-7.40632813 20.35371094 -8.68765625 20.26992188 -10.0078125 20.18359375 C-10.99523437 20.12300781 -11.98265625 20.06242187 -13 20 C-12.70947939 13.90843883 -9.86109178 10.92077249 -5.9375 6.625 C-5.36966797 5.98433594 -4.80183594 5.34367187 -4.21679688 4.68359375 C-2.82187858 3.11284542 -1.41235847 1.5550855 0 0 Z " fill="#A1A6AE" transform="translate(272,26)"/>
<path d="M0 0 C3.61984803 1.89334737 5.68828756 4.06486269 7 8 C7.0685495 9.89470816 7.08480372 11.7916834 7.0625 13.6875 C7.05347656 14.68136719 7.04445313 15.67523438 7.03515625 16.69921875 C7.02355469 17.45847656 7.01195312 18.21773437 7 19 C9.1464753 18.88655624 11.29220592 18.75893655 13.4375 18.625 C15.22994141 18.52058594 15.22994141 18.52058594 17.05859375 18.4140625 C18.02925781 18.27742188 18.99992187 18.14078125 20 18 C21.585869 14.828262 21.37866445 11.36486178 21.5625 7.875 C21.62727539 6.74384766 21.62727539 6.74384766 21.69335938 5.58984375 C21.7994832 3.72678112 21.90025001 1.86341476 22 0 C24.31 0 26.62 0 29 0 C29.02716824 2.54173977 29.04691969 5.08318415 29.0625 7.625 C29.07087891 8.33785156 29.07925781 9.05070312 29.08789062 9.78515625 C29.10710296 13.97344438 28.8267327 17.8728462 28 22 C27.34 22 26.68 22 26 22 C26 22.66 26 23.32 26 24 C25.01 24.495 25.01 24.495 24 25 C23.505 26.485 23.505 26.485 23 28 C24.32 28.66 25.64 29.32 27 30 C26.67 31.65 26.34 33.3 26 35 C24.865625 34.979375 23.73125 34.95875 22.5625 34.9375 C19.18424326 34.58422523 19.18424326 34.58422523 18 36 C16.33382885 36.04063832 14.66611905 36.042721 13 36 C12.34 33.03 11.68 30.06 11 27 C12.4540625 27.0309375 12.4540625 27.0309375 13.9375 27.0625 C16.87465895 27.35618499 16.87465895 27.35618499 18 26 C14.37 26 10.74 26 7 26 C6.01 28.475 6.01 28.475 5 31 C0.05190758 35.45328318 -2.51315945 36.12260764 -9.125 36.0625 C-10.40632813 36.05347656 -11.68765625 36.04445312 -13.0078125 36.03515625 C-14.48894531 36.01775391 -14.48894531 36.01775391 -16 36 C-16 34.35 -16 32.7 -16 31 C-11.05 30.34 -6.1 29.68 -1 29 C-0.34 27.35 0.32 25.7 1 24 C-1.31 24 -3.62 24 -6 24 C-6.33 23.34 -6.66 22.68 -7 22 C-6.67 21.34 -6.34 20.68 -6 20 C-3.36 20 -0.72 20 2 20 C1.91231752 18.4156683 1.80412671 16.83246433 1.6875 15.25 C1.62949219 14.36828125 1.57148438 13.4865625 1.51171875 12.578125 C0.91050823 9.54912545 0.25397245 8.11736806 -2 6 C-4.66605452 5.44156222 -4.66605452 5.44156222 -7.5625 5.625 C-9.01849609 5.64433594 -9.01849609 5.64433594 -10.50390625 5.6640625 C-13.17037266 5.76605755 -13.17037266 5.76605755 -15 8 C-14.67862916 5.02731977 -14.47675271 3.447891 -12.2578125 1.36328125 C-8.35506897 -0.9932196 -4.40678766 -0.75644072 0 0 Z " fill="#9DA1A9" transform="translate(350,38)"/>
<path d="M0 0 C3.15835169 2.43456276 4.79981495 4.69972243 7 8 C7.79097501 16.78350156 8.44253848 25.64521827 3 33 C-1.10563949 36.1598761 -4.20702931 36.33064404 -9.3125 36.1875 C-10.56675781 36.16042969 -11.82101562 36.13335937 -13.11328125 36.10546875 C-14.06589844 36.07066406 -15.01851563 36.03585938 -16 36 C-16 34.35 -16 32.7 -16 31 C-15.08476562 30.89042969 -14.16953125 30.78085938 -13.2265625 30.66796875 C-12.03804688 30.50941406 -10.84953125 30.35085937 -9.625 30.1875 C-7.84996094 29.96126953 -7.84996094 29.96126953 -6.0390625 29.73046875 C-2.70467916 29.29300666 -2.70467916 29.29300666 -1 26 C-1.66386719 25.91363281 -2.32773437 25.82726562 -3.01171875 25.73828125 C-8.83490224 24.81167249 -12.28011665 23.91984572 -16 19 C-17.58299585 14.25101245 -17.55207896 10.43540528 -15.75 5.75 C-11.79898498 -0.45873789 -6.98519243 -1.23401293 0 0 Z " fill="#A0A4AD" transform="translate(304,38)"/>
<path d="M0 0 C1.65 0.66 3.3 1.32 5 2 C3.50923566 5.2826932 1.61379679 7.93077441 -0.625 10.75 C-1.25664062 11.54921875 -1.88828125 12.3484375 -2.5390625 13.171875 C-3.02117187 13.77515625 -3.50328125 14.3784375 -4 15 C-2.1746875 14.87625 -2.1746875 14.87625 -0.3125 14.75 C3.0726174 14.73799604 3.93868234 14.96086107 6.9375 16.875 C9.8625854 19.88872436 10.21474934 21.70145421 10.375 25.8125 C10.42398438 26.66457031 10.47296875 27.51664063 10.5234375 28.39453125 C10 31 10 31 8.33984375 33.8046875 C2.96534156 37.33740122 -2.54200496 36.52335472 -8.8125 36.3125 C-10.07771484 36.28994141 -11.34292969 36.26738281 -12.64648438 36.24414062 C-15.76552619 36.18529078 -18.88215902 36.1031137 -22 36 C-22 34.66666667 -22 33.33333333 -22 32 C-21.34926514 31.98018066 -20.69853027 31.96036133 -20.02807617 31.93994141 C-17.08080849 31.84470701 -14.13425115 31.73502182 -11.1875 31.625 C-10.16333984 31.5940625 -9.13917969 31.563125 -8.08398438 31.53125 C-7.10107422 31.49257813 -6.11816406 31.45390625 -5.10546875 31.4140625 C-4.19949951 31.3826416 -3.29353027 31.3512207 -2.36010742 31.31884766 C0.26525392 31.13972081 0.26525392 31.13972081 3 29 C3.25015873 25.41642759 3.25015873 25.41642759 3 22 C0.0384304 20.5192152 -2.83506295 20.64685963 -6.125 20.4375 C-7.40632813 20.35371094 -8.68765625 20.26992188 -10.0078125 20.18359375 C-11.48894531 20.09271484 -11.48894531 20.09271484 -13 20 C-12.70947939 13.90843883 -9.86109178 10.92077249 -5.9375 6.625 C-5.36966797 5.98433594 -4.80183594 5.34367187 -4.21679688 4.68359375 C-2.82187858 3.11284542 -1.41235847 1.5550855 0 0 Z " fill="#9DA1A8" transform="translate(272,26)"/>
<path d="M0 0 C1.32 0 2.64 0 4 0 C4 2.64 4 5.28 4 8 C4.66 8 5.32 8 6 8 C6 5.36 6 2.72 6 0 C7.32 0 8.64 0 10 0 C10.36697248 7.33944954 10.36697248 7.33944954 8.828125 10.109375 C7 12 7 12 4.45629883 12.45410156 C2.97166138 12.42268066 2.97166138 12.42268066 1.45703125 12.390625 C0.38388672 12.37773438 -0.68925781 12.36484375 -1.79492188 12.3515625 C-2.91447266 12.31804687 -4.03402344 12.28453125 -5.1875 12.25 C-6.31865234 12.23195313 -7.44980469 12.21390625 -8.61523438 12.1953125 C-11.41100376 12.14812652 -14.20507972 12.08230595 -17 12 C-17.33 13.32 -17.66 14.64 -18 16 C-19.65 16 -21.3 16 -23 16 C-23.33 15.01 -23.66 14.02 -24 13 C-24.66 13 -25.32 13 -26 13 C-26.391875 13.495 -26.78375 13.99 -27.1875 14.5 C-29.96010717 16.79457145 -32.5318126 16.19631249 -36 16 C-36 15.01 -36 14.02 -36 13 C-35.01 12.67 -34.02 12.34 -33 12 C-33.99 11.34 -34.98 10.68 -36 10 C-36.4375 3.875 -36.4375 3.875 -35 1 C-31.625 0.875 -31.625 0.875 -28 1 C-26 3 -26 3 -25.875 5.625 C-25.91625 6.40875 -25.9575 7.1925 -26 8 C-24.68 8 -23.36 8 -22 8 C-22 5.69 -22 3.38 -22 1 C-20.68 1 -19.36 1 -18 1 C-18 3.64 -18 6.28 -18 9 C-14.04 9 -10.08 9 -6 9 C-6 6.36 -6 3.72 -6 1 C-5.01 1 -4.02 1 -3 1 C-3 3.31 -3 5.62 -3 8 C-2.01 8 -1.02 8 0 8 C0 5.36 0 2.72 0 0 Z " fill="#92999E" transform="translate(171,85)"/>
<path d="M0 0 C8.25 0 16.5 0 25 0 C24.67 0.66 24.34 1.32 24 2 C23.95977609 4.3329866 23.95679753 6.66706666 24 9 C22.35 9.66 20.7 10.32 19 11 C21.97 11.495 21.97 11.495 25 12 C25 12.33 25 12.66 25 13 C16.75 13 8.5 13 0 13 C-0.33 13.66 -0.66 14.32 -1 15 C-1.09289153 9.70518291 -0.76541303 5.35789122 0 0 Z " fill="#3E4D75" transform="translate(20,41)"/>
<path d="M0 0 C2.31 0 4.62 0 7 0 C7.02716824 2.54173977 7.04691969 5.08318415 7.0625 7.625 C7.07087891 8.33785156 7.07925781 9.05070312 7.08789062 9.78515625 C7.10710296 13.97344438 6.8267327 17.8728462 6 22 C5.34 22 4.68 22 4 22 C4 22.66 4 23.32 4 24 C3.34 24.33 2.68 24.66 2 25 C1.67 25.99 1.34 26.98 1 28 C2.32 28.66 3.64 29.32 5 30 C4.67 31.65 4.34 33.3 4 35 C2.865625 34.979375 1.73125 34.95875 0.5625 34.9375 C-2.81575674 34.58422523 -2.81575674 34.58422523 -4 36 C-5.66617115 36.04063832 -7.33388095 36.042721 -9 36 C-9.66 33.03 -10.32 30.06 -11 27 C-9.6078125 27.0928125 -9.6078125 27.0928125 -8.1875 27.1875 C-5.05038832 27.31485238 -5.05038832 27.31485238 -3.3125 25.625 C-2.879375 25.08875 -2.44625 24.5525 -2 24 C-1.01 23.34 -0.02 22.68 1 22 C-1.9615696 20.5192152 -4.83506295 20.64685963 -8.125 20.4375 C-9.40632813 20.35371094 -10.68765625 20.26992188 -12.0078125 20.18359375 C-13.48894531 20.09271484 -13.48894531 20.09271484 -15 20 C-15 19.67 -15 19.34 -15 19 C-13.60974609 18.92652344 -13.60974609 18.92652344 -12.19140625 18.8515625 C-10.99386719 18.77679688 -9.79632813 18.70203125 -8.5625 18.625 C-6.77005859 18.52058594 -6.77005859 18.52058594 -4.94140625 18.4140625 C-3.97074219 18.27742188 -3.00007813 18.14078125 -2 18 C-0.414131 14.828262 -0.62133555 11.36486178 -0.4375 7.875 C-0.39431641 7.12089844 -0.35113281 6.36679687 -0.30664062 5.58984375 C-0.2005168 3.72678112 -0.09974999 1.86341476 0 0 Z " fill="#A7AAB5" transform="translate(372,38)"/>
<path d="M0 0 C2.6875 1.875 2.6875 1.875 4 5 C4.29268695 8.36333245 4.235234 11.63484696 4 15 C1.36 15 -1.28 15 -4 15 C-4 15.99 -4 16.98 -4 18 C-1.69 18.33 0.62 18.66 3 19 C2.67 19.66 2.34 20.32 2 21 C-4.71135664 20.83594462 -8.26796574 19.85033511 -13 15 C-14.38226016 12.23547967 -14.09525387 9.9538637 -14.0625 6.875 C-14.05347656 5.77929688 -14.04445313 4.68359375 -14.03515625 3.5546875 C-14.02355469 2.71164063 -14.01195312 1.86859375 -14 1 C-9.3630921 -0.54563597 -4.83753572 -0.60831288 0 0 Z " fill="#9EA1AB" transform="translate(348,43)"/>
<path d="M0 0 C2.93423195 1.79646854 4.47205355 2.9441071 6 6 C6.07092842 8.2072923 6.08415025 10.41667452 6.0625 12.625 C6.05347656 13.81351563 6.04445312 15.00203125 6.03515625 16.2265625 C6.02355469 17.14179687 6.01195312 18.05703125 6 19 C5.34 19 4.68 19 4 19 C3.67 19.66 3.34 20.32 3 21 C2.34 21 1.68 21 1 21 C0.95101562 20.16855469 0.90203125 19.33710937 0.8515625 18.48046875 C0.77679688 17.39378906 0.70203125 16.30710937 0.625 15.1875 C0.55539063 14.10855469 0.48578125 13.02960937 0.4140625 11.91796875 C0.18804267 8.81373814 0.18804267 8.81373814 -2 6 C-5 5.5 -5 5.5 -8 6 C-10.10364211 9.15546316 -10.26411176 9.56087261 -9.8125 13.0625 C-9.73644531 13.75472656 -9.66039062 14.44695313 -9.58203125 15.16015625 C-9.0863543 17.394538 -9.0863543 17.394538 -6 19 C-6 19.66 -6 20.32 -6 21 C-5.01 21.33 -4.02 21.66 -3 22 C-6.05847848 22.54372951 -8.88772805 23 -12 23 C-14.47411332 21.02070935 -15.95245801 18.98146566 -17 16 C-17.42543885 10.63947052 -17.47662684 7.34578355 -14 3 C-9.67648307 -0.86396741 -5.57345811 -0.83872428 0 0 Z " fill="#9EA2A9" transform="translate(244,38)"/>
<path d="M0 0 C1.98 0 3.96 0 6 0 C6.09922585 4.18084291 6.17163374 8.36105371 6.21972656 12.54272461 C6.23978421 13.96374457 6.26703778 15.38468259 6.30175781 16.80541992 C6.35054011 18.85355895 6.37302539 20.90060275 6.390625 22.94921875 C6.41157227 24.17987061 6.43251953 25.41052246 6.45410156 26.6784668 C5.91473353 30.62368298 4.79513824 32.21786683 2 35 C-2.38585061 37.04673029 -6.20233099 37.19190676 -11 37 C-11 35.02 -11 33.04 -11 31 C-9.72125 30.87625 -8.4425 30.7525 -7.125 30.625 C-3.65209064 30.30957601 -3.65209064 30.30957601 -1 28 C-0.62731113 25.08811755 -0.62731113 25.08811755 -0.5859375 21.6796875 C-0.54726563 20.42285156 -0.50859375 19.16601562 -0.46875 17.87109375 C-0.4378125 16.55238281 -0.406875 15.23367187 -0.375 13.875 C-0.33681971 12.53513082 -0.29776794 11.19528617 -0.2578125 9.85546875 C-0.1632797 6.57045381 -0.07772844 3.28544862 0 0 Z " fill="#9EA3A9" transform="translate(322,38)"/>
<path d="M0 0 C2.28226374 1.4574101 3.34665441 2.79553922 5 5 C3.625 7.5 3.625 7.5 2 10 C1.34 10 0.68 10 0 10 C-0.66 8.68 -1.32 7.36 -2 6 C-4.91634129 5.7497843 -4.91634129 5.7497843 -8 6 C-10.46943529 9.70415293 -10.46913089 11.62144505 -10 16 C-7.22106468 19.20646383 -4.09635593 19.53450501 0 20 C0 21.32 0 22.64 0 24 C-9.94126706 24.78346238 -9.94126706 24.78346238 -14.125 21.6875 C-17.11030613 17.40856121 -17.3483774 14.13856666 -17 9 C-13.77404333 0.61251265 -8.63114504 -1.56169345 0 0 Z " fill="#9DA1AB" transform="translate(304,38)"/>
<path d="M0 0 C0.33 0 0.66 0 1 0 C1.144375 0.9075 1.28875 1.815 1.4375 2.75 C1.86409473 5.21476956 2.35074221 7.58847107 3 10 C4.0725 9.814375 5.145 9.62875 6.25 9.4375 C9.40391546 9.0695432 11.09818492 8.95534657 14 10 C14 9.34 14 8.68 14 8 C16.64 7.01 19.28 6.02 22 5 C23.98 7.97 25.96 10.94 28 14 C25.27352396 19.45295207 22.35036126 20.24838564 17 23 C14.69 19.37 12.38 15.74 10 12 C6.7 12.33 3.4 12.66 0 13 C0 8.71 0 4.42 0 0 Z " fill="#7B899A" transform="translate(54,80)"/>
<path d="M0 0 C1.32 0 2.64 0 4 0 C4.10807131 1.93627769 4.1856225 3.87427756 4.25 5.8125 C4.29640625 6.89144531 4.3428125 7.97039062 4.390625 9.08203125 C4 12 4 12 2.17578125 13.875 C-0.68366734 15.35349407 -2.81910464 15.20303587 -6 15 C-6.99 15 -7.98 15 -9 15 C-13 15 -17 15 -21 15 C-21.4640625 15.9590625 -21.4640625 15.9590625 -21.9375 16.9375 C-23 19 -23 19 -24 20 C-25.66617115 20.04063832 -27.33388095 20.042721 -29 20 C-29 18.68 -29 17.36 -29 16 C-27.68 15.67 -26.36 15.34 -25 15 C-24.67 11.37 -24.34 7.74 -24 4 C-23.01 4 -22.02 4 -21 4 C-21 6.64 -21 9.28 -21 12 C-17.04 12 -13.08 12 -9 12 C-9 9.69 -9 7.38 -9 5 C-8.01 5 -7.02 5 -6 5 C-6 6.98 -6 8.96 -6 11 C-4.02 11 -2.04 11 0 11 C0 7.37 0 3.74 0 0 Z " fill="#A5A7AC" transform="translate(232,82)"/>
<path d="M0 0 C0.99 0 1.98 0 3 0 C3 1.32 3 2.64 3 4 C2.01 4 1.02 4 0 4 C-1.4606285 6.64738916 -2 7.89448334 -2 11 C-1.36893571 13.01151741 -0.70626239 15.01363702 0 17 C-0.66 17.66 -1.32 18.32 -2 19 C-5.125 18.625 -5.125 18.625 -8 18 C-8 18.66 -8 19.32 -8 20 C-8.66 20 -9.32 20 -10 20 C-10 20.66 -10 21.32 -10 22 C-10.66 21.67 -11.32 21.34 -12 21 C-12.680625 20.67 -13.36125 20.34 -14.0625 20 C-17.09258439 16.87217095 -16.82345353 13.21063328 -17 9 C-16.33613281 8.96261719 -15.67226562 8.92523438 -14.98828125 8.88671875 C-7.96175741 8.45627147 -7.96175741 8.45627147 -2 5 C-0.65310085 2.42900598 -0.65310085 2.42900598 0 0 Z " fill="#FAFCFD" transform="translate(221,54)"/>
<path d="M0 0 C1.32 0 2.64 0 4 0 C4 2.64 4 5.28 4 8 C4.66 8 5.32 8 6 8 C6 5.36 6 2.72 6 0 C7.32 0 8.64 0 10 0 C10.36604982 7.32099633 10.36604982 7.32099633 8.85546875 10.12304688 C7 12 7 12 4.27270508 12.36230469 C2.66238403 12.26804199 2.66238403 12.26804199 1.01953125 12.171875 C-0.14384766 12.11386719 -1.30722656 12.05585937 -2.50585938 11.99609375 C-3.72080078 11.91488281 -4.93574219 11.83367187 -6.1875 11.75 C-7.41404297 11.68425781 -8.64058594 11.61851563 -9.90429688 11.55078125 C-12.93772584 11.38553609 -15.96877913 11.20121662 -19 11 C-18.67 10.01 -18.34 9.02 -18 8 C-14.04 8.33 -10.08 8.66 -6 9 C-6 6.36 -6 3.72 -6 1 C-5.01 1 -4.02 1 -3 1 C-3 3.31 -3 5.62 -3 8 C-2.01 8 -1.02 8 0 8 C0 5.36 0 2.72 0 0 Z " fill="#AAB0B4" transform="translate(171,85)"/>
<path d="M0 0 C3 0.5625 3 0.5625 4.875 2.4375 C6.4588944 6.83720666 6.2425837 10.93544057 6 15.5625 C2.03640173 15.87337045 -0.38933056 15.88732417 -3.9375 14 C-6 11.5625 -6 11.5625 -6.5 8.0625 C-5.79551499 3.13110496 -5.0888611 0.95416146 0 0 Z " fill="#F2F6F7" transform="translate(299,42.4375)"/>
<path d="M0 0 C3 0.5 3 0.5 4.67578125 2.171875 C6.3244121 5.07035284 6.30573663 6.9393743 6.1875 10.25 C6.16042969 11.23484375 6.13335937 12.2196875 6.10546875 13.234375 C6.07066406 13.98203125 6.03585938 14.7296875 6 15.5 C2.56292439 15.69829282 -0.17067842 15.84918804 -3.375 14.5 C-5.85262261 11.45061833 -6.18699604 8.37237632 -6 4.5 C-4.52934807 1.03964252 -3.7126214 0.61877023 0 0 Z " fill="#F3F7F9" transform="translate(239,42.5)"/>
<path d="M0 0 C0.99 0 1.98 0 3 0 C3.33 4.29 3.66 8.58 4 13 C7.96 13.33 11.92 13.66 16 14 C16 10.04 16 6.08 16 2 C17.32 2 18.64 2 20 2 C20.08142927 3.7492214 20.13938541 5.49954542 20.1875 7.25 C20.23970703 8.71179688 20.23970703 8.71179688 20.29296875 10.203125 C19.94497466 13.52530853 19.53453454 14.80991538 17 17 C13.75 17.4609375 13.75 17.4609375 10 17.375 C8.7625 17.36210938 7.525 17.34921875 6.25 17.3359375 C3 17 3 17 0 15 C-0.22137393 12.37302936 -0.28162025 9.99106036 -0.1875 7.375 C-0.17396484 6.66859375 -0.16042969 5.9621875 -0.14648438 5.234375 C-0.1111104 3.48925872 -0.05730221 1.74453392 0 0 Z " fill="#A4A6A7" transform="translate(183,80)"/>
<path d="M0 0 C3.01086208 0.45162931 3.70776767 0.95264564 5.5 3.375 C5.79296875 6.07421875 5.79296875 6.07421875 5.6875 9.0625 C5.66042969 10.05636719 5.63335937 11.05023438 5.60546875 12.07421875 C5.57066406 12.83347656 5.53585937 13.59273437 5.5 14.375 C4.241875 14.41625 2.98375 14.4575 1.6875 14.5 C0.97980469 14.52320313 0.27210938 14.54640625 -0.45703125 14.5703125 C-2.5 14.375 -2.5 14.375 -5.5 12.375 C-5.8984375 10.31640625 -5.8984375 10.31640625 -5.875 7.9375 C-5.88273437 7.15503906 -5.89046875 6.37257813 -5.8984375 5.56640625 C-5.23704875 1.9287681 -3.59754778 0.53963217 0 0 Z " fill="#F8FBFC" transform="translate(345.5,42.625)"/>
<path d="M0 0 C1.32 0 2.64 0 4 0 C4 4.29 4 8.58 4 13 C5.98 13 7.96 13 10 13 C10 9.37 10 5.74 10 2 C11.32 2.33 12.64 2.66 14 3 C14.61839323 12.00105708 14.61839323 12.00105708 12.375 15.625 C9.27095134 17.42208081 7.53343747 17.58890625 4 17 C1.828125 15.390625 1.828125 15.390625 0 13 C-0.390625 9.765625 -0.390625 9.765625 -0.25 6.25 C-0.21390625 5.07953125 -0.1778125 3.9090625 -0.140625 2.703125 C-0.09421875 1.81109375 -0.0478125 0.9190625 0 0 Z " fill="#A8ABB1" transform="translate(119,80)"/>
<path d="M0 0 C0.66 0.66 1.32 1.32 2 2 C1.34 2 0.68 2 0 2 C0 1.34 0 0.68 0 0 Z M-1 2 C-0.67 2.66 -0.34 3.32 0 4 C-0.99 4.495 -0.99 4.495 -2 5 C-2.33 5.99 -2.66 6.98 -3 8 C-1.68 8.66 -0.36 9.32 1 10 C0.67 11.65 0.34 13.3 0 15 C-1.134375 14.979375 -2.26875 14.95875 -3.4375 14.9375 C-6.81575674 14.58422523 -6.81575674 14.58422523 -8 16 C-9.66617115 16.04063832 -11.33388095 16.042721 -13 16 C-13.66 13.03 -14.32 10.06 -15 7 C-13.6078125 7.0928125 -13.6078125 7.0928125 -12.1875 7.1875 C-9.05321236 7.33119503 -9.05321236 7.33119503 -7.4375 5.625 C-6.963125 5.08875 -6.48875 4.5525 -6 4 C-3.3125 2.8125 -3.3125 2.8125 -1 2 Z " fill="#F0F3F6" transform="translate(376,58)"/>
<path d="M0 0 C1.65 0 3.3 0 5 0 C5.33 5.94 5.66 11.88 6 18 C6.66 18.33 7.32 18.66 8 19 C8 19.99 8 20.98 8 22 C5.03 22 2.06 22 -1 22 C-1.33 21.01 -1.66 20.02 -2 19 C-1.34 19 -0.68 19 0 19 C0 12.73 0 6.46 0 0 Z " fill="#9A9DA8" transform="translate(163,39)"/>
<path d="M0 0 C1.32 0 2.64 0 4 0 C4.08132187 2.56314499 4.14064175 5.12368418 4.1875 7.6875 C4.22520508 8.7693457 4.22520508 8.7693457 4.26367188 9.87304688 C4.32613483 14.43284263 3.95441695 17.44643556 1 21 C-2 21.5625 -2 21.5625 -5 21 C-6.875 19.375 -6.875 19.375 -8 17 C-8.1875 13.75 -8.1875 13.75 -8 11 C-7.01 11 -6.02 11 -5 11 C-4.67 12.65 -4.34 14.3 -4 16 C-2.68 16.33 -1.36 16.66 0 17 C0 11.39 0 5.78 0 0 Z " fill="#ABAEB0" transform="translate(113,80)"/>
<path d="M0 0 C1.99954746 -0.04254356 4.00041636 -0.04080783 6 0 C6.33 0.33 6.66 0.66 7 1 C8.55948542 1.15686249 10.12542668 1.25076639 11.69140625 1.31640625 C13.10776367 1.37924805 13.10776367 1.37924805 14.55273438 1.44335938 C16.04256836 1.50233398 16.04256836 1.50233398 17.5625 1.5625 C19.05813477 1.62727539 19.05813477 1.62727539 20.58398438 1.69335938 C23.0558415 1.79980298 25.5278031 1.90181928 28 2 C28 2.66 28 3.32 28 4 C28.99 4.66 29.98 5.32 31 6 C22.42 6 13.84 6 5 6 C5.33 5.34 5.66 4.68 6 4 C4.68 3.67 3.36 3.34 2 3 C2 2.34 2 1.68 2 1 C1.34 0.67 0.68 0.34 0 0 Z " fill="#999DA8" transform="translate(113,56)"/>
<path d="M0 0 C2 3 2 3 1.625 5.6875 C1.41875 6.450625 1.2125 7.21375 1 8 C-3.50353262 9.75747614 -7.17639811 10.19294408 -12 10 C-12 8.02 -12 6.04 -12 4 C-10.7625 3.896875 -9.525 3.79375 -8.25 3.6875 C-4.7207134 3.26198318 -2.62839034 2.51887408 0 0 Z " fill="#A9ADB5" transform="translate(323,65)"/>
<path d="M0 0 C1.32 0 2.64 0 4 0 C4.125 6.625 4.125 6.625 3 10 C9.27 10 15.54 10 22 10 C22 10.33 22 10.66 22 11 C16.39 11 10.78 11 5 11 C4.67 12.32 4.34 13.64 4 15 C2.35 15 0.7 15 -1 15 C-1.33 14.01 -1.66 13.02 -2 12 C-2.66 11.34 -3.32 10.68 -4 10 C-2.35 10 -0.7 10 1 10 C1 9.34 1 8.68 1 8 C-0.65 8 -2.3 8 -4 8 C-2.68 7.67 -1.36 7.34 0 7 C0 4.69 0 2.38 0 0 Z M1 4 C2 8 2 8 2 8 Z " fill="#C9CCD0" transform="translate(149,86)"/>
<path d="M0 0 C1.32 0 2.64 0 4 0 C4.10807131 1.93627769 4.1856225 3.87427756 4.25 5.8125 C4.29640625 6.89144531 4.3428125 7.97039062 4.390625 9.08203125 C4 12 4 12 2.17578125 13.87109375 C-0.7047416 15.36565588 -2.79513209 15.27275472 -6 15 C-6.99 14.67 -7.98 14.34 -9 14 C-8.67 12.68 -8.34 11.36 -8 10 C-5.36 10.33 -2.72 10.66 0 11 C0 7.37 0 3.74 0 0 Z " fill="#A7AAAD" transform="translate(232,82)"/>
<path d="M0 0 C1.65 0 3.3 0 5 0 C5.05441656 1.89551022 5.09298035 3.7914792 5.125 5.6875 C5.14820313 6.74324219 5.17140625 7.79898438 5.1953125 8.88671875 C4.99858729 12.02251859 4.33057654 14.17645373 3 17 C2.01 17 1.02 17 0 17 C0 11.39 0 5.78 0 0 Z " fill="#9A9FAA" transform="translate(194,38)"/>
<path d="M0 0 C0 4.62 0 9.24 0 14 C-8.25 14 -16.5 14 -25 14 C-25.33 14.66 -25.66 15.32 -26 16 C-26 15.01 -26 14.02 -26 13 C-24.89140625 12.96261719 -23.7828125 12.92523438 -22.640625 12.88671875 C-21.17705026 12.82104552 -19.71351009 12.75459865 -18.25 12.6875 C-17.52039062 12.66494141 -16.79078125 12.64238281 -16.0390625 12.61914062 C-11.711175 12.40274625 -9.21536341 11.92237469 -6 9 C-5.01 8.67 -4.02 8.34 -3 8 C-2.67 6.02 -2.34 4.04 -2 2 C-3.32 1.67 -4.64 1.34 -6 1 C-1.125 0 -1.125 0 0 0 Z " fill="#868DAA" transform="translate(46,41)"/>
<path d="M0 0 C1.32 0 2.64 0 4 0 C4 5.61 4 11.22 4 17 C2.68 17 1.36 17 0 17 C0 11.39 0 5.78 0 0 Z " fill="#ADAFB3" transform="translate(238,80)"/>
<path d="M0 0 C-0.99 0.33 -1.98 0.66 -3 1 C-3 4.63 -3 8.26 -3 12 C-4.65 12.33 -6.3 12.66 -8 13 C-10 10 -10 10 -9.86328125 7.7734375 C-9.68152344 6.98195313 -9.49976563 6.19046875 -9.3125 5.375 C-9.14363281 4.57835938 -8.97476563 3.78171875 -8.80078125 2.9609375 C-8.53652344 2.31382813 -8.27226562 1.66671875 -8 1 C-5.07175348 0.02391783 -3.04386724 -0.08226668 0 0 Z " fill="#EFF1F3" transform="translate(211,85)"/>
<path d="M0 0 C0.99 0 1.98 0 3 0 C3 2.64 3 5.28 3 8 C4.65 8 6.3 8 8 8 C7.67 8.66 7.34 9.32 7 10 C0.4 10 -6.2 10 -13 10 C-12.67 9.01 -12.34 8.02 -12 7 C-8.04 7.33 -4.08 7.66 0 8 C0 5.36 0 2.72 0 0 Z " fill="#9A9DA1" transform="translate(165,86)"/>
<path d="M0 0 C2.64 0.33 5.28 0.66 8 1 C7.01 1.495 7.01 1.495 6 2 C6 2.66 6 3.32 6 4 C5.01 4.66 4.02 5.32 3 6 C3 7.32 3 8.64 3 10 C5.03268602 12.16343011 5.03268602 12.16343011 8 14 C8 14.66 8 15.32 8 16 C1.125 15.125 1.125 15.125 0 14 C-0.07271741 11.64686445 -0.08370868 9.29166332 -0.0625 6.9375 C-0.05347656 5.64714844 -0.04445312 4.35679688 -0.03515625 3.02734375 C-0.02355469 2.02832031 -0.01195312 1.02929688 0 0 Z " fill="#666F88" transform="translate(54,5)"/>
<path d="M0 0 C1.98 0 3.96 0 6 0 C6 2.64 6 5.28 6 8 C4.02 8.66 2.04 9.32 0 10 C-1 9 -1 9 -1.125 5.5625 C-1 2 -1 2 0 0 Z " fill="#A0A7AA" transform="translate(136,86)"/>
<path d="M0 0 C3.63 0 7.26 0 11 0 C10.67 0.99 10.34 1.98 10 3 C10.99 3 11.98 3 13 3 C13 3.66 13 4.32 13 5 C8.71 5 4.42 5 0 5 C0 3.35 0 1.7 0 0 Z " fill="#989EA6" transform="translate(228,69)"/>
<path d="M0 0 C0.66 0 1.32 0 2 0 C2 4.29 2 8.58 2 13 C-5.625 12.125 -5.625 12.125 -9 11 C-9 10.34 -9 9.68 -9 9 C-6.23735711 8.40267181 -3.83967231 8 -1 8 C-0.67 5.36 -0.34 2.72 0 0 Z " fill="#4D5572" transform="translate(44,80)"/>
<path d="M0 0 C0.33 0 0.66 0 1 0 C1 3.3 1 6.6 1 10 C-1.64 10 -4.28 10 -7 10 C-7 10.99 -7 11.98 -7 13 C-4.69 13.33 -2.38 13.66 0 14 C-0.33 14.66 -0.66 15.32 -1 16 C-2.43836751 15.88541307 -3.87570966 15.75790884 -5.3125 15.625 C-6.51326172 15.52058594 -6.51326172 15.52058594 -7.73828125 15.4140625 C-10 15 -10 15 -13 13 C-12.1875 11.0625 -12.1875 11.0625 -11 9 C-6.94952424 7.64984141 -4.2079832 8.37915002 0 9 C0 6.03 0 3.06 0 0 Z " fill="#ACB0B8" transform="translate(351,48)"/>
<path d="M0 0 C3.3 0 6.6 0 10 0 C10 1.65 10 3.3 10 5 C6.7 5 3.4 5 0 5 C0 3.35 0 1.7 0 0 Z " fill="#999FA8" transform="translate(334,69)"/>
<path d="M0 0 C1.32 0 2.64 0 4 0 C4.05391993 1.79133978 4.09275571 3.58313899 4.125 5.375 C4.14820313 6.37273437 4.17140625 7.37046875 4.1953125 8.3984375 C4 11 4 11 2 13 C1.34 13 0.68 13 0 13 C0 8.71 0 4.42 0 0 Z " fill="#9FA1A2" transform="translate(199,82)"/>
<path d="M0 0 C0 1.32 0 2.64 0 4 C-4.62 4 -9.24 4 -14 4 C-12.68 3.34 -11.36 2.68 -10 2 C-11.32 1.34 -12.64 0.68 -14 0 C-12.41773035 -0.19627391 -10.83410729 -0.38165538 -9.25 -0.5625 C-8.36828125 -0.66691406 -7.4865625 -0.77132812 -6.578125 -0.87890625 C-4.11567549 -0.99456676 -2.33461936 -0.73638695 0 0 Z " fill="#9799A6" transform="translate(216,58)"/>
<path d="M0 0 C0.66 0 1.32 0 2 0 C2.66384179 8.16894198 1.13048181 15.42514803 -2 23 C-2.66 23.33 -3.32 23.66 -4 24 C-4 21.69 -4 19.38 -4 17 C-3.34 16.67 -2.68 16.34 -2 16 C-0.89485234 12.68455701 -0.67892369 9.79589889 -0.4375 6.3125 C-0.35371094 5.13300781 -0.26992187 3.95351563 -0.18359375 2.73828125 C-0.12300781 1.83464844 -0.06242187 0.93101563 0 0 Z " fill="#3A3E5F" transform="translate(92,46)"/>
<path d="M0 0 C0.38218767 1.65614657 0.71395102 3.32457024 1 5 C0 6 0 6 -2.5 6.125 C-5 6 -5 6 -6 5 C-6.04063832 3.33382885 -6.042721 1.66611905 -6 0 C-3.50907189 -1.24546405 -2.58919267 -0.7767578 0 0 Z " fill="#A1A4A7" transform="translate(128,35)"/>
<path d="M0 0 C2.125 0.375 2.125 0.375 4 1 C4.38218767 2.65614657 4.71395102 4.32457024 5 6 C4 7 4 7 1.4375 7.0625 C0.2309375 7.0315625 0.2309375 7.0315625 -1 7 C-1.625 4.625 -1.625 4.625 -2 2 C-1.34 1.34 -0.68 0.68 0 0 Z " fill="#A3A7AA" transform="translate(372,66)"/>
<path d="M0 0 C-0.375 2.4375 -0.375 2.4375 -1 5 C-3.95664519 6.4783226 -6.74229737 6.06032783 -10 6 C-10 5.01 -10 4.02 -10 3 C-3.375 0 -3.375 0 0 0 Z " fill="#A6ACAF" transform="translate(145,95)"/>
<path d="M0 0 C0.99 0 1.98 0 3 0 C3 1.65 3 3.3 3 5 C2.34 5 1.68 5 1 5 C0.67 5.66 0.34 6.32 0 7 C0 4.69 0 2.38 0 0 Z M-11 7 C-7.37 7 -3.74 7 0 7 C0 7.66 0 8.32 0 9 C-3.96 9 -7.92 9 -12 9 C-11.67 8.34 -11.34 7.68 -11 7 Z " fill="#999D9E" transform="translate(223,87)"/>
<path d="M0 0 C1.65 0.33 3.3 0.66 5 1 C5.625 2.875 5.625 2.875 6 5 C5.34 5.66 4.68 6.32 4 7 C1.375 6.625 1.375 6.625 -1 6 C-0.67 4.02 -0.34 2.04 0 0 Z " fill="#A4A6AA" transform="translate(215,66)"/>
<path d="M0 0 C3 2 3 2 3.51171875 4.1640625 C3.56972656 4.97617187 3.62773437 5.78828125 3.6875 6.625 C3.75324219 7.44226562 3.81898438 8.25953125 3.88671875 9.1015625 C3.92410156 9.72804688 3.96148437 10.35453125 4 11 C1.525 10.01 1.525 10.01 -1 9 C-1.33 9.66 -1.66 10.32 -2 11 C-2.25 3.375 -2.25 3.375 0 0 Z " fill="#F0F3F6" transform="translate(284,45)"/>
<path d="M0 0 C0.99 0.33 1.98 0.66 3 1 C4.1875 3.5625 4.1875 3.5625 5 6 C4 7 4 7 0.9375 7.0625 C-0.031875 7.041875 -1.00125 7.02125 -2 7 C-2 3 -2 3 0 0 Z " fill="#B6B8B9" transform="translate(172,77)"/>
<path d="M0 0 C1.2065625 0.0309375 1.2065625 0.0309375 2.4375 0.0625 C2.81968767 1.71864657 3.15145102 3.38707024 3.4375 5.0625 C2.4375 6.0625 2.4375 6.0625 -0.125 6.125 C-1.3315625 6.0940625 -1.3315625 6.0940625 -2.5625 6.0625 C-2.94468767 4.40635343 -3.27645102 2.73792976 -3.5625 1.0625 C-2.5625 0.0625 -2.5625 0.0625 0 0 Z " fill="#A2A6AA" transform="translate(365.5625,66.9375)"/>
<path d="M0 0 C2.00720923 0.28674418 4.0085944 0.61866701 6 1 C5 4 5 4 1.6875 5.75 C-2.97563098 7.33072237 -2.97563098 7.33072237 -6 6 C-4 4 -2 2 0 0 Z " fill="#F0F8F6" transform="translate(61,72)"/>
<path d="M0 0 C1.65 0 3.3 0 5 0 C5.33 1.65 5.66 3.3 6 5 C1.25 6.125 1.25 6.125 -1 5 C-0.67 3.35 -0.34 1.7 0 0 Z " fill="#A1A2A7" transform="translate(206,67)"/>
<path d="M0 0 C1.32 0 2.64 0 4 0 C4.33 1.98 4.66 3.96 5 6 C3.34385343 6.38218767 1.67542976 6.71395102 0 7 C-1 6 -1 6 -1.125 3.5 C-1 1 -1 1 0 0 Z " fill="#A1A3A5" transform="translate(132,34)"/>
<path d="M0 0 C1.32 0 2.64 0 4 0 C4.125 6.625 4.125 6.625 3 10 C2.34 10 1.68 10 1 10 C1 9.34 1 8.68 1 8 C-0.65 8 -2.3 8 -4 8 C-2.68 7.67 -1.36 7.34 0 7 C0 4.69 0 2.38 0 0 Z M1 4 C2 8 2 8 2 8 Z " fill="#B2B6BA" transform="translate(149,86)"/>
<path d="M0 0 C0.66 0 1.32 0 2 0 C2.33 2.97 2.66 5.94 3 9 C6.63 9.33 10.26 9.66 14 10 C14 10.33 14 10.66 14 11 C9.71 11 5.42 11 1 11 C0.21052896 7.0526448 -0.09202608 3.95712151 0 0 Z " fill="#ABAEB4" transform="translate(209,86)"/>
<path d="M0 0 C0 0.66 0 1.32 0 2 C0.66 2.33 1.32 2.66 2 3 C1.34 4.98 0.68 6.96 0 9 C-0.66 9 -1.32 9 -2 9 C-2 9.66 -2 10.32 -2 11 C-4 10 -4 10 -5 8 C-4.01 7.67 -3.02 7.34 -2 7 C-2 5.68 -2 4.36 -2 3 C-3.32 2.34 -4.64 1.68 -6 1 C-3.92446352 0.4465236 -2.15634036 0 0 0 Z " fill="#EAECF1" transform="translate(213,65)"/>
<path d="M0 0 C0.99 0 1.98 0 3 0 C3 1.32 3 2.64 3 4 C2.01 4 1.02 4 0 4 C-0.268125 4.598125 -0.53625 5.19625 -0.8125 5.8125 C-1.98493467 7.97224808 -3.19369282 9.35790256 -5 11 C-5 10.34 -5 9.68 -5 9 C-5.66 8.67 -6.32 8.34 -7 8 C-5.824375 7.4121875 -5.824375 7.4121875 -4.625 6.8125 C-1.64843582 4.75725331 -1.01176437 3.40320742 0 0 Z " fill="#EFF3F6" transform="translate(221,54)"/>
<path d="M0 0 C1.32 0 2.64 0 4 0 C4 3.96 4 7.92 4 12 C3.67 12 3.34 12 3 12 C3 9.36 3 6.72 3 4 C2.34 4 1.68 4 1 4 C1 5.98 1 7.96 1 10 C0.67 10 0.34 10 0 10 C0 6.7 0 3.4 0 0 Z " fill="#B7B9BE" transform="translate(232,82)"/>
<path d="M0 0 C0.66 1.32 1.32 2.64 2 4 C1.01 4 0.02 4 -1 4 C-1.33 5.65 -1.66 7.3 -2 9 C-2.99 8.01 -3.98 7.02 -5 6 C-3.86695008 2.60085025 -2.87481525 1.94745549 0 0 Z " fill="#E9EFF5" transform="translate(81,80)"/>
<path d="M0 0 C2.64 0 5.28 0 8 0 C7.34 1.32 6.68 2.64 6 4 C4.02 4 2.04 4 0 4 C0 2.68 0 1.36 0 0 Z " fill="#999CA7" transform="translate(312,70)"/>
<path d="M0 0 C0.99 0 1.98 0 3 0 C3.21278058 4.46839215 2.59138085 7.82262526 1 12 C0.67 12 0.34 12 0 12 C0 8.04 0 4.08 0 0 Z " fill="#9C9FA1" transform="translate(183,80)"/>
<path d="M0 0 C1.32 0 2.64 0 4 0 C4 1.32 4 2.64 4 4 C3.01 4 2.02 4 1 4 C1 6.31 1 8.62 1 11 C0.67 11 0.34 11 0 11 C0 7.37 0 3.74 0 0 Z " fill="#C1C3C4" transform="translate(199,82)"/>
<path d="M0 0 C1.32 0.66 2.64 1.32 4 2 C4 2.99 4 3.98 4 5 C2 6.6875 2 6.6875 0 8 C-1.09658936 4.71023192 -0.79953138 3.28696233 0 0 Z " fill="#A1A5AB" transform="translate(244,39)"/>
<path d="M0 0 C1.485 0.99 1.485 0.99 3 2 C3.1875 5.125 3.1875 5.125 3 8 C2.01 7.67 1.02 7.34 0 7 C-0.38133299 5.0085944 -0.71325582 3.00720923 -1 1 C-0.67 0.67 -0.34 0.34 0 0 Z " fill="#9DA5A9" transform="translate(142,86)"/>
<path d="M0 0 C1.32 0.33 2.64 0.66 4 1 C4 4.3 4 7.6 4 11 C3.67 11 3.34 11 3 11 C3 8.69 3 6.38 3 4 C2.01 4 1.02 4 0 4 C0 2.68 0 1.36 0 0 Z " fill="#C2C5C5" transform="translate(129,82)"/>
<path d="M0 0 C1.98 0 3.96 0 6 0 C5.67 1.32 5.34 2.64 5 4 C3.35 4 1.7 4 0 4 C0 2.68 0 1.36 0 0 Z " fill="#ADAFB0" transform="translate(222,82)"/>
<path d="M0 0 C1.98 0 3.96 0 6 0 C6 1.32 6 2.64 6 4 C3.36 4 0.72 4 -2 4 C-1.34 2.68 -0.68 1.36 0 0 Z " fill="#9698A9" transform="translate(298,58)"/>
<path d="M0 0 C0.99 0 1.98 0 3 0 C3 2.31 3 4.62 3 7 C2.01 7 1.02 7 0 7 C0 4.69 0 2.38 0 0 Z " fill="#9C9FA3" transform="translate(129,86)"/>
<path d="M0 0 C0.99 0 1.98 0 3 0 C3 1.98 3 3.96 3 6 C2.01 6 1.02 6 0 6 C0 4.02 0 2.04 0 0 Z " fill="#9C9E9D" transform="translate(105,91)"/>
<path d="M0 0 C0.66 0 1.32 0 2 0 C2 2.97 2 5.94 2 9 C1.01 8.67 0.02 8.34 -1 8 C-0.67 5.36 -0.34 2.72 0 0 Z " fill="#999CA0" transform="translate(233,86)"/>
<path d="M0 0 C0.99 0.33 1.98 0.66 3 1 C2.625 3.9375 2.625 3.9375 2 7 C1.01 7.495 1.01 7.495 0 8 C0 5.36 0 2.72 0 0 Z " fill="#EEF4FA" transform="translate(4,39)"/>
<path d="M0 0 C0.99 0.33 1.98 0.66 3 1 C2.1875 2.9375 2.1875 2.9375 1 5 C0.01 5.33 -0.98 5.66 -2 6 C-2.33 5.01 -2.66 4.02 -3 3 C-2.01 2.01 -1.02 1.02 0 0 Z " fill="#A4A8AF" transform="translate(274,27)"/>
<path d="M0 0 C0.99 0.33 1.98 0.66 3 1 C3 2.32 3 3.64 3 5 C1.68 5 0.36 5 -1 5 C-0.67 3.35 -0.34 1.7 0 0 Z " fill="#E7EFF1" transform="translate(139,88)"/>
<path d="M0 0 C-0.59861742 2.35171131 -1.26924352 4.6859378 -2 7 C-2.99 7.495 -2.99 7.495 -4 8 C-4 5.69 -4 3.38 -4 1 C-2 0 -2 0 0 0 Z " fill="#3C476D" transform="translate(92,62)"/>
<path d="M0 0 C0.66 0.33 1.32 0.66 2 1 C2 1.99 2 2.98 2 4 C-0.64 4 -3.28 4 -6 4 C-4.03617993 2.49440461 -2.21736634 1.10868317 0 0 Z " fill="#4D5A8D" transform="translate(42,49)"/>
<path d="M0 0 C-0.99 0.66 -1.98 1.32 -3 2 C-3.33 2.99 -3.66 3.98 -4 5 C-4.66 5 -5.32 5 -6 5 C-6 3.35 -6 1.7 -6 0 C-3.50907189 -1.24546405 -2.58919267 -0.7767578 0 0 Z " fill="#AAAEB1" transform="translate(128,35)"/>
<path d="M0 0 C2.31 0 4.62 0 7 0 C6.67 0.99 6.34 1.98 6 3 C4.35 3 2.7 3 1 3 C0.67 2.01 0.34 1.02 0 0 Z " fill="#AAADB1" transform="translate(147,98)"/>
<path d="M0 0 C0.99 0 1.98 0 3 0 C2.1875 2.4375 2.1875 2.4375 1 5 C0.01 5.33 -0.98 5.66 -2 6 C-1.34 4.02 -0.68 2.04 0 0 Z " fill="#444B68" transform="translate(84,72)"/>
</svg>
