<svg width="60" height="60" viewBox="0 0 60 60" fill="none" xmlns="http://www.w3.org/2000/svg">
<path d="M54.7266 24.7266C52.4377 24.7266 50.5051 26.2006 49.7768 28.2422H38.611C38.2219 26.3324 37.1892 24.673 35.7788 23.4306L43.1277 10.4526C43.4322 10.5075 43.7425 10.5469 44.0625 10.5469C46.9702 10.5469 49.3359 8.18115 49.3359 5.27344C49.3359 2.36572 46.9702 0 44.0625 0C41.1548 0 38.7891 2.36572 38.7891 5.27344C38.7891 6.58493 39.2876 7.77145 40.0827 8.69476L32.726 21.6875C31.8626 21.4032 30.9576 21.2109 30 21.2109C28.2115 21.2109 26.5503 21.7538 25.161 22.6753L10.0182 7.5325C10.3473 6.84494 10.5469 6.08505 10.5469 5.27344C10.5469 2.36572 8.18115 0 5.27344 0C2.36572 0 0 2.36572 0 5.27344C0 8.18115 2.36572 10.5469 5.27344 10.5469C6.08505 10.5469 6.84494 10.3473 7.5325 10.0182L22.6753 25.161C21.7538 26.5503 21.2109 28.2115 21.2109 30C21.2109 31.7885 21.7538 33.4497 22.6753 34.839L11.1653 46.349C10.4778 46.0199 9.71786 45.8203 8.90625 45.8203C5.99854 45.8203 3.63281 48.186 3.63281 51.0938C3.63281 54.0015 5.99854 56.3672 8.90625 56.3672C11.814 56.3672 14.1797 54.0015 14.1797 51.0938C14.1797 50.2821 13.9801 49.5222 13.651 48.8347L25.161 37.3247C26.0825 37.9358 27.122 38.383 28.2422 38.611V49.7768C26.2006 50.5051 24.7266 52.4377 24.7266 54.7266C24.7266 57.6343 27.0923 60 30 60C32.9077 60 35.2734 57.6343 35.2734 54.7266C35.2734 52.4377 33.7994 50.5051 31.7578 49.7768V38.611C35.1965 37.9106 37.9106 35.1965 38.611 31.7578H49.7768C50.5051 33.7994 52.4377 35.2734 54.7266 35.2734C57.6343 35.2734 60 32.9077 60 30C60 27.0923 57.6343 24.7266 54.7266 24.7266Z" fill="#20B486"/>
</svg>
