<svg width="254" height="292" viewBox="0 0 254 292" fill="none" xmlns="http://www.w3.org/2000/svg">
<path d="M115.642 4.97733C115.642 2.22842 117.87 0 120.619 0C123.368 0 125.596 2.22843 125.596 4.97733V15.2638C125.596 18.0127 123.368 20.2411 120.619 20.2411C117.87 20.2411 115.642 18.0127 115.642 15.2638V4.97733Z" fill="#3E5EC0"/>
<path d="M66.4288 32.1529C64.4855 30.2096 64.4855 27.0589 66.4288 25.1157C68.3721 23.1724 71.5227 23.1724 73.466 25.1157L80.5032 32.1529C82.4465 34.0962 82.4465 37.2469 80.5033 39.1901C78.56 41.1334 75.4093 41.1334 73.466 39.1901L66.4288 32.1529Z" fill="#3E5EC0"/>
<path d="M171.979 137.741C170.036 135.798 170.036 132.647 171.979 130.704C173.922 128.761 177.073 128.761 179.016 130.704L186.054 137.741C187.997 139.685 187.997 142.835 186.054 144.779C184.11 146.722 180.96 146.722 179.016 144.779L171.979 137.741Z" fill="#3E5EC0"/>
<path d="M41.3145 84.9466C41.3145 82.1977 43.5429 79.9692 46.2918 79.9692H56.5783C59.3272 79.9692 61.5556 82.1977 61.5556 84.9466C61.5556 87.6955 59.3272 89.9239 56.5783 89.9239H46.2918C43.5429 89.9239 41.3145 87.6955 41.3145 84.9466Z" fill="#3E5EC0"/>
<path d="M190.964 84.9466C190.964 82.1977 193.193 79.9692 195.942 79.9692H206.228C208.977 79.9692 211.205 82.1977 211.205 84.9466C211.205 87.6955 208.977 89.9239 206.228 89.9239H195.942C193.193 89.9239 190.964 87.6955 190.964 84.9466Z" fill="#3E5EC0"/>
<path d="M66.4009 144.764C64.4577 142.82 64.4577 139.67 66.4009 137.726L73.4382 130.689C75.3815 128.746 78.5321 128.746 80.4754 130.689C82.4187 132.633 82.4187 135.783 80.4754 137.727L73.4382 144.764C71.4949 146.707 68.3442 146.707 66.4009 144.764Z" fill="#3E5EC0"/>
<path d="M172.002 39.2042C170.059 37.2609 170.059 34.1102 172.002 32.1669L179.039 25.1297C180.983 23.1864 184.133 23.1864 186.076 25.1297C188.02 27.073 188.02 30.2237 186.076 32.1669L179.039 39.2042C177.096 41.1474 173.945 41.1474 172.002 39.2042Z" fill="#3E5EC0"/>
<g clip-path="url(#clip0_56_181)">
<path d="M69.2313 211.19H183.833C186.563 211.19 188.776 208.977 188.776 206.247V196.367C188.776 193.637 186.563 191.424 183.833 191.424H69.2313C66.5014 191.424 64.2886 193.637 64.2886 196.367V206.247C64.2886 208.977 66.5014 211.19 69.2313 211.19Z" fill="#C5C5C5"/>
<path d="M197.657 272.238H55.4056C52.6757 272.238 50.4629 274.451 50.4629 277.181V287.056C50.4629 289.786 52.6757 291.999 55.4056 291.999H197.657C200.387 291.999 202.599 289.786 202.599 287.056V277.181C202.599 274.451 200.387 272.238 197.657 272.238Z" fill="#C5C5C5"/>
<path d="M78.3862 226.018H174.68V257.409H78.3862V226.018Z" fill="#C5C5C5"/>
<path d="M115.564 143.258V176.596H137.5V143.258L126.532 137.49L115.564 143.258Z" fill="#C5C5C5"/>
<path d="M95.5444 89.8104C98.8808 93.0627 100.403 104.833 99.6123 109.42L96.5058 127.538C95.8133 131.576 100.056 134.653 103.682 132.746C117.475 125.492 112.132 128.299 119.947 124.193C124.069 122.028 128.992 122.028 133.114 124.193C139.428 127.51 140.334 127.988 149.379 132.746C153.005 134.654 157.247 131.576 156.555 127.538L153.448 109.42C152.657 104.833 154.18 93.0627 157.511 89.8153L170.678 76.9811C173.612 74.1217 171.993 69.1395 167.939 68.5503L149.746 65.9075C145.14 65.2402 141.161 62.3438 139.1 58.1721L130.962 41.6867C129.149 38.0133 123.911 38.0133 122.098 41.6867L113.961 58.1721C111.9 62.3438 107.921 65.2402 103.314 65.9075L85.1217 68.5503C81.0677 69.1395 79.4485 74.1217 82.3825 76.9811L95.5444 89.8104Z" fill="#C5C5C5"/>
</g>
<defs>
<clipPath id="clip0_56_181">
<rect width="253.067" height="253.067" fill="white" transform="translate(0 38.9321)"/>
</clipPath>
</defs>
</svg>
