<svg width="68" height="68" viewBox="0 0 68 68" fill="none" xmlns="http://www.w3.org/2000/svg">
<g clip-path="url(#clip0_46_7079)">
<path d="M34 0C15.2084 0 0 15.207 0 34C0 52.7916 15.207 68 34 68C52.7916 68 68 52.793 68 34C68 15.2084 52.793 0 34 0ZM25.9099 48.3424C25.9099 48.3424 14.1663 36.5941 13.3222 35.7515C11.4443 33.8737 11.4443 30.8179 13.3222 28.9417C15.2048 27.0591 18.2494 27.0591 20.132 28.9417L27.7347 36.5444C28.6801 37.4898 30.2143 37.4833 31.1517 36.5331L47.8449 19.5993C49.7211 17.6958 52.7866 17.6829 54.6788 19.5752C56.5421 21.4386 56.5534 24.4816 54.7028 26.3594C36.5748 44.7521 33.1322 48.3408 33.1322 48.3408C31.142 50.3309 27.9016 50.3326 25.9099 48.3424Z" fill="#20B486"/>
</g>
<defs>
<clipPath id="clip0_46_7079">
<rect width="68" height="68" fill="white"/>
</clipPath>
</defs>
</svg>
