<svg width="48" height="48" viewBox="0 0 48 48" fill="none" xmlns="http://www.w3.org/2000/svg">
<g clip-path="url(#clip0_46_7052)">
<path d="M40.4985 45.1873H34.0769L31.3723 14.3354L47.3747 9.44217L46.4973 6.53284C45.0312 1.67508 39.9133 -1.07131 35.0537 0.395256C34.3103 0.61931 33.8894 1.40397 34.1134 2.14738L36.4252 9.80834L8.03595 18.3749C7.23254 17.2959 5.94634 16.5947 4.49983 16.5947C2.06308 16.5947 0 18.5636 0 21.0007C0 22.9811 1.35211 24.6098 3.09364 25.1809V38.4376H1.4062C0.629977 38.4376 0 39.0676 0 39.8438V46.5935C0 47.3698 0.629977 47.9997 1.4062 47.9997H40.4985C41.2747 47.9997 41.9047 47.3698 41.9047 46.5935C41.9047 45.8173 41.2747 45.1873 40.4985 45.1873ZM4.49983 22.5944C3.6008 22.5944 2.8124 21.8501 2.8124 21.0007C2.8124 20.1514 3.6008 19.407 4.49983 19.407C5.37824 19.407 6.09352 20.1223 6.09352 21.0007C6.09352 21.8791 5.37824 22.5944 4.49983 22.5944ZM7.49972 38.4376H5.90603V25.1753C7.63284 24.5922 8.88342 22.9666 8.90498 21.0504C14.8063 19.2702 13.1725 19.7421 16.3194 18.8943L14.0151 45.1873H8.90592V39.8438C8.90592 39.0676 8.27594 38.4376 7.49972 38.4376ZM22.1429 17.0559L25.9115 15.9187L27.0168 28.5942H21.0761L22.1429 17.0559ZM20.8155 31.4066H27.2624L27.8024 37.5939H20.2436L20.8155 31.4066ZM19.5415 45.1873L19.9839 40.4063H28.0471L28.4643 45.1873H19.5415Z" fill="#3B42C4"/>
<path d="M47.9756 12.1978L38.0503 15.1929L39.7138 20.7063C39.9418 21.4623 40.7386 21.8702 41.4716 21.6447C45.7354 20.3564 48.2792 16.3062 47.9756 12.1978Z" fill="#3B42C4"/>
</g>
<defs>
<clipPath id="clip0_46_7052">
<rect width="48" height="48" fill="white"/>
</clipPath>
</defs>
</svg>
