<svg width="48" height="48" viewBox="0 0 48 48" fill="none" xmlns="http://www.w3.org/2000/svg">
<g clip-path="url(#clip0_46_7022)">
<path d="M42.584 28.2445V0H35.4009V25.8711C36.7048 27.3766 37.7203 29.1622 38.3379 31.0565H47.9951V28.2445H42.584Z" fill="#3B42C4"/>
<path d="M23.9999 23.4631C17.2351 23.4631 11.7314 28.9667 11.7314 35.7315C11.7314 42.4963 17.2351 48 23.9999 48C30.7647 48 36.2684 42.4963 36.2684 35.7315C36.2684 28.9667 30.7647 23.4631 23.9999 23.4631ZM23.9999 34.3255C26.6171 34.3255 28.7463 36.4547 28.7463 39.0719C28.7463 41.1998 27.3388 43.0051 25.4059 43.6057V45.749H22.5939V43.6057C20.6611 43.0051 19.2535 41.1999 19.2535 39.072H22.0655C22.0655 40.1387 22.9332 41.0065 23.9999 41.0065C25.0666 41.0065 25.9344 40.1387 25.9344 39.072C25.9344 38.0054 25.0666 37.1375 23.9999 37.1375C21.3827 37.1375 19.2535 35.0083 19.2535 32.3911C19.2535 30.2632 20.661 28.458 22.5939 27.8574V25.7141H25.4059V27.8574C27.3387 28.458 28.7463 30.2632 28.7463 32.3911H25.9344C25.9344 31.3244 25.0666 30.4567 23.9999 30.4567C22.9332 30.4567 22.0655 31.3244 22.0655 32.3911C22.0655 33.4578 22.9332 34.3255 23.9999 34.3255Z" fill="#3B42C4"/>
<path d="M12.5987 25.871V18.6338H5.41554V28.2444H0.00439453V31.0564H9.66159C10.2794 29.1616 11.294 27.3774 12.5987 25.871Z" fill="#3B42C4"/>
<path d="M32.589 6.21143H25.4058V20.7175C28.0578 20.9639 30.5126 21.8997 32.589 23.3437V6.21143Z" fill="#3B42C4"/>
<path d="M22.5939 12.4226H15.4106V23.3436C17.4871 21.8995 19.9418 20.9636 22.5939 20.7173V12.4226Z" fill="#3B42C4"/>
</g>
<defs>
<clipPath id="clip0_46_7022">
<rect width="48" height="48" fill="white"/>
</clipPath>
</defs>
</svg>
