<svg width="48" height="48" viewBox="0 0 48 48" fill="none" xmlns="http://www.w3.org/2000/svg">
<g clip-path="url(#clip0_46_7031)">
<path d="M24 21.2496C25.49 21.2496 26.9053 21.0712 27.9855 20.7472L45.5208 15.4866C47.5699 14.8716 48 13.8303 48 13.0651C48 12.3 47.5697 11.2587 45.5206 10.6441L27.9855 5.38351C26.9054 5.05951 25.49 4.8811 24 4.8811C22.5102 4.8811 21.0949 5.05942 20.0145 5.38351L2.47959 10.6441C0.430125 11.2588 6.12355e-08 12.3 6.12355e-08 13.0651C-0.000187439 13.8303 0.430125 14.8716 2.47941 15.4865L20.0147 20.7471C21.0949 21.0713 22.5102 21.2496 24 21.2496Z" fill="#3B42C4"/>
<path d="M24.0001 24.0619C22.2183 24.0619 20.5606 23.8472 19.2066 23.4409L9.0376 20.3901V24.3619C9.0376 25.6781 9.89325 27.5324 13.9697 28.8913C16.6696 29.7914 20.2319 30.287 24 30.287C27.7681 30.287 31.3303 29.7914 34.0303 28.8913C38.1068 27.5325 38.9624 25.6782 38.9624 24.3619V20.3901L28.7934 23.4409C27.4393 23.8472 25.7817 24.0619 24.0001 24.0619Z" fill="#3B42C4"/>
<path d="M44.9876 28.4872V18.5828L42.1751 19.4265V28.4873C40.4263 29.0762 39.1626 30.7305 39.1626 32.6755V38.7004C39.1626 41.1369 41.1449 43.1191 43.5813 43.1191C46.0179 43.1191 48 41.1369 48 38.7004V32.6755C48 30.7304 46.7365 29.0762 44.9876 28.4872Z" fill="#3B42C4"/>
</g>
<defs>
<clipPath id="clip0_46_7031">
<rect width="48" height="48" fill="white"/>
</clipPath>
</defs>
</svg>
