<svg width="48" height="48" viewBox="0 0 48 48" fill="none" xmlns="http://www.w3.org/2000/svg">
<g clip-path="url(#clip0_46_7037)">
<path d="M36.6563 0H11.3438V11.3437H36.6563V0ZM19.7813 7.12504H16.9688V4.3125H19.7813V7.12504ZM25.4062 7.12504H22.5938V4.3125H25.4062V7.12504ZM31.0313 7.12504H28.2188V4.3125H31.0313V7.12504Z" fill="#3B42C4"/>
<path d="M0 11.3438V36.6563H11.3437V11.3438H0ZM7.12504 31.0313H4.3125V28.2188H7.12504V31.0313ZM7.12504 25.4062H4.3125V22.5938H7.12504V25.4062ZM7.12504 19.7813H4.3125V16.9688H7.12504V19.7813Z" fill="#3B42C4"/>
<path d="M36.6562 36.6563H48V11.3438H36.6562V36.6563ZM40.875 16.9688H43.6875V19.7812H40.875V16.9688ZM40.875 22.5938H43.6875V25.4062H40.875V22.5938ZM40.875 28.2188H43.6875V31.0313H40.875V28.2188Z" fill="#3B42C4"/>
<path d="M11.3438 48H36.6563V36.6562H11.3438V48ZM28.2188 40.875H31.0313V43.6875H28.2188V40.875ZM22.5938 40.875H25.4062V43.6875H22.5938V40.875ZM16.9688 40.875H19.7812V43.6875H16.9688V40.875Z" fill="#3B42C4"/>
<path d="M23.9998 14.1562C23.2475 14.1562 21.5107 17.1229 21.2417 22.5937H26.7578C26.4889 17.1229 24.7521 14.1562 23.9998 14.1562Z" fill="#3B42C4"/>
<path d="M23.9999 33.8437C24.7522 33.8437 26.489 30.8771 26.758 25.4062H21.2417C21.5109 30.8771 23.2476 33.8437 23.9999 33.8437Z" fill="#3B42C4"/>
<path d="M28.0767 15.0664C28.9472 17.1248 29.4433 19.8108 29.5711 22.5938H33.7018C33.2154 19.2383 31.0577 16.4332 28.0767 15.0664Z" fill="#3B42C4"/>
<path d="M28.0767 32.9336C31.0577 31.5668 33.2154 28.7617 33.7018 25.4062H29.5711C29.4433 28.1893 28.9472 30.8753 28.0767 32.9336Z" fill="#3B42C4"/>
<path d="M14.2983 25.4062C14.7848 28.7617 16.9425 31.5668 19.9235 32.9336C19.053 30.8752 18.5569 28.1892 18.4291 25.4062H14.2983Z" fill="#3B42C4"/>
<path d="M14.2983 22.5938H18.4291C18.557 19.8108 19.0531 17.1248 19.9235 15.0664C16.9425 16.4332 14.7848 19.2383 14.2983 22.5938Z" fill="#3B42C4"/>
</g>
<defs>
<clipPath id="clip0_46_7037">
<rect width="48" height="48" fill="white"/>
</clipPath>
</defs>
</svg>
