<svg width="48" height="48" viewBox="0 0 48 48" fill="none" xmlns="http://www.w3.org/2000/svg">
<path d="M31.729 16.0613L33.4132 18.0963C34.8576 16.901 35.7198 14.8853 35.7198 12.7047C35.7198 10.5242 34.8576 8.50879 33.4132 7.31348L31.729 9.34814C32.5612 10.0373 33.0781 11.3232 33.0781 12.7047C33.0781 14.0863 32.5612 15.3725 31.729 16.0613Z" fill="#3B42C4"/>
<path d="M36.5019 1.47656L34.8174 3.51151C37.1542 5.44537 38.6055 8.96814 38.6055 12.7051C38.6055 16.4416 37.1539 19.9641 34.8174 21.8985L36.5019 23.9332C39.4728 21.4739 41.2469 17.2763 41.2469 12.7051C41.2469 8.13373 39.4728 3.93613 36.5019 1.47656Z" fill="#3B42C4"/>
<path d="M15.6348 16.0614C14.8026 15.3725 14.2857 14.0863 14.2857 12.7048C14.2857 11.3232 14.8026 10.0373 15.6346 9.34845L13.9501 7.31323C12.5062 8.50882 11.644 10.5243 11.644 12.7048C11.644 14.8853 12.5062 16.901 13.9501 18.0963L15.6348 16.0614Z" fill="#3B42C4"/>
<path d="M8.75858 12.7051C8.75858 8.96814 10.2101 5.44537 12.5464 3.51151L10.8622 1.47656C7.89093 3.93613 6.11719 8.13373 6.11719 12.7051C6.11719 17.2763 7.89093 21.4739 10.8622 23.9332L12.5464 21.8985C10.2101 19.9641 8.75858 16.4416 8.75858 12.7051Z" fill="#3B42C4"/>
<path d="M17.8652 12.7052C17.8652 9.49777 20.4742 6.8877 23.6819 6.8877C26.8897 6.8877 29.4984 9.49777 29.4984 12.7052C29.4984 15.2917 27.801 17.4881 25.4615 18.2421L28.7747 29.4165H18.6823L21.9879 18.2693C19.6044 17.542 17.8652 15.3233 17.8652 12.7052Z" fill="#3B42C4"/>
<path d="M30.9682 36.813H16.4888L17.8986 32.0581H29.5584L30.9682 36.813Z" fill="#3B42C4"/>
<path d="M33.8335 46.4765L31.7516 39.4546H15.7055L13.623 46.4765H33.8335Z" fill="#3B42C4"/>
</svg>
