<svg width="196" height="196" viewBox="0 0 196 196" fill="none" xmlns="http://www.w3.org/2000/svg">
<g clip-path="url(#clip0_46_6951)">
<path d="M103.554 67.2672C101.605 66.8803 99.5933 66.6734 97.5336 66.6734C80.517 66.6734 66.6733 80.5171 66.6733 97.5337C66.6733 114.55 80.517 128.394 97.5336 128.394C114.55 128.394 128.394 114.55 128.394 97.5337C128.394 95.4739 128.187 93.4618 127.8 91.5137L109.657 109.657C106.418 112.895 102.113 114.678 97.5336 114.678C92.9543 114.678 88.6488 112.895 85.4103 109.657C82.1719 106.418 80.389 102.113 80.389 97.5337C80.389 92.9543 82.1719 88.6488 85.4103 85.4104L103.554 67.2672Z" fill="#C5C5C5"/>
<path d="M186.339 57.2201L174.043 69.5159C172.812 70.7467 171.425 71.7676 169.928 72.5594C172.636 80.392 174.113 88.7932 174.113 97.5336C174.113 139.76 139.76 174.113 97.5336 174.113C55.3077 174.113 20.9545 139.76 20.9545 97.5336C20.9545 55.3077 55.3077 20.9545 97.5336 20.9545C106.277 20.9545 114.683 22.4323 122.517 25.1424C123.31 23.6438 124.324 22.2508 125.553 21.023L137.847 8.72856C125.553 3.12531 111.903 0 97.5336 0C43.7529 0 0 43.7529 0 97.5336C0 151.314 43.7529 195.067 97.5336 195.067C151.314 195.067 195.067 151.314 195.067 97.5336C195.067 83.1646 191.942 69.5144 186.339 57.2201Z" fill="#C5C5C5"/>
<path d="M121.807 49.0139L120.765 36.6674C113.546 33.9007 105.715 32.3842 97.5337 32.3842C61.6104 32.3842 32.3843 61.6104 32.3843 97.5336C32.3843 133.457 61.6104 162.683 97.5337 162.683C133.457 162.683 162.683 133.457 162.683 97.5336C162.683 89.3528 161.167 81.5216 158.4 74.3021L146.053 73.2604L136.992 82.3208C138.819 87.0445 139.824 92.173 139.824 97.5336C139.824 120.853 120.853 139.824 97.5337 139.824C74.2144 139.824 55.2437 120.853 55.2437 97.5336C55.2437 74.2143 74.2144 55.2437 97.5337 55.2437C102.894 55.2437 108.023 56.2482 112.747 58.0758L121.807 49.0139Z" fill="#C5C5C5"/>
<path d="M131.979 33.6269L133.643 53.3432L93.4931 93.493C91.2608 95.7239 91.2608 99.3433 93.4931 101.574C94.6078 102.69 96.0708 103.248 97.5337 103.248C98.9967 103.248 100.46 102.69 101.574 101.574L141.724 61.4243L161.44 63.0867C161.601 63.1001 161.76 63.1075 161.921 63.1075C163.43 63.1075 164.886 62.5093 165.962 61.4333L190.207 37.1868C191.78 35.6152 192.298 33.2727 191.534 31.1832C190.769 29.0937 188.863 27.6382 186.647 27.4522L169.094 25.9714L167.615 8.42049C167.428 6.20301 165.972 4.29657 163.884 3.5331C161.795 2.76814 159.452 3.28754 157.879 4.85912L133.634 29.1056C132.443 30.2962 131.838 31.9496 131.979 33.6269Z" fill="#3E5EC0"/>
</g>
<defs>
<clipPath id="clip0_46_6951">
<rect width="195.067" height="195.067" fill="white"/>
</clipPath>
</defs>
</svg>
