<svg width="48" height="48" viewBox="0 0 48 48" fill="none" xmlns="http://www.w3.org/2000/svg">
<g clip-path="url(#clip0_46_6866)">
<path d="M17.9548 26.043H30.2746L33.0802 23.1037V19.8381H14.9199V23.0755L17.9548 26.043Z" fill="#3E5EC0"/>
<path d="M26.4602 15.3184C24.1577 14.1451 22.2686 14.8125 21.3955 15.2751V17.0256H26.4602V15.3184Z" fill="#3E5EC0"/>
<path d="M31.8936 28.4201C31.6282 28.6981 31.2607 28.8554 30.8763 28.8554H17.3816C17.0141 28.8554 16.6612 28.7115 16.3984 28.4546L14.9199 27.0089V31.4658H33.0802V27.177L31.8936 28.4201Z" fill="#3E5EC0"/>
<path d="M47.7436 25.8281L45.0674 22.0245L46.899 17.7438C47.1758 17.0967 46.9317 16.3445 46.3274 15.9834L42.3471 13.6051L42.2888 8.94685C42.2799 8.24101 41.7492 7.65105 41.0482 7.56799L36.4546 7.02358L34.5189 2.79575C34.2239 2.15179 33.4962 1.8277 32.8205 2.0391L28.406 3.41975L24.9306 0.351983C24.399 -0.117328 23.601 -0.117328 23.0694 0.351983L19.5939 3.41975L15.1794 2.03901C14.5034 1.8276 13.7759 2.15179 13.4811 2.79566L11.5452 7.02349L6.95158 7.56789C6.25052 7.65095 5.71981 8.24092 5.7109 8.94676L5.65259 13.605L1.67235 15.9833C1.06814 16.3444 0.823919 17.0966 1.10086 17.7437L2.93244 22.0244L0.256171 25.8281C-0.148546 26.4033 -0.0660466 27.1891 0.449389 27.6678L3.85241 30.8277L2.94604 35.3977C2.80897 36.089 3.20469 36.7749 3.87181 37.0023L8.25461 38.4958L9.27442 43.0382C9.42929 43.7282 10.073 44.1962 10.7766 44.1303L15.3808 43.7027L18.1472 47.4315C18.5695 48.0009 19.3496 48.1668 19.9672 47.8185L24 45.545L28.0328 47.8185C28.2501 47.9411 28.4876 48 28.7224 48C29.155 48 29.579 47.8004 29.8527 47.4315L32.6191 43.7027L37.2232 44.1303C37.9278 44.1963 38.5705 43.7281 38.7254 43.0382L39.7452 38.4958L44.1279 37.0023C44.795 36.7749 45.1908 36.0889 45.0537 35.3977L44.1474 30.8277L47.5505 27.6678C48.066 27.1891 48.1485 26.4032 47.7436 25.8281ZM35.8926 32.872C35.8926 33.6487 35.2629 34.2783 34.4863 34.2783H13.5136C12.737 34.2783 12.1073 33.6487 12.1073 32.872V18.4318C12.1073 17.6552 12.737 17.0255 13.5136 17.0255H18.583V14.5077C18.583 14.083 18.7749 13.6811 19.1051 13.4141C19.2193 13.3218 20.2692 12.5001 21.9447 12.0839C23.5106 11.6951 25.9409 11.5949 28.6279 13.3254C29.0298 13.5843 29.2727 14.0296 29.2727 14.5077V17.0255H34.4863C35.2629 17.0255 35.8926 17.6552 35.8926 18.4318V32.872Z" fill="#3E5EC0"/>
</g>
<defs>
<clipPath id="clip0_46_6866">
<rect width="48" height="48" fill="white"/>
</clipPath>
</defs>
</svg>
