<svg width="48" height="48" viewBox="0 0 48 48" fill="none" xmlns="http://www.w3.org/2000/svg">
<g clip-path="url(#clip0_46_6876)">
<path d="M12.7545 26.6036C14.2328 26.6036 15.4355 25.401 15.4355 23.9227V22.5171H22.5944V17.987C20.2449 17.3644 18.5078 15.2198 18.5078 12.677C18.5078 10.1343 20.2449 7.98972 22.5944 7.36704V0L2.91455 5.59617V22.5171H10.0736V23.9227C10.0736 25.401 11.2762 26.6036 12.7545 26.6036Z" fill="#3E5EC0"/>
<path d="M25.4059 9.99617H24.0003C22.522 9.99617 21.3193 11.1988 21.3193 12.6771C21.3193 14.1554 22.522 15.3581 24.0003 15.3581H25.4059V22.517H29.936C30.5585 20.1675 32.7032 18.4304 35.2459 18.4304C37.7885 18.4304 39.9332 20.1675 40.5558 22.517H45.0858V5.59617L25.4059 0V9.99617Z" fill="#3E5EC0"/>
<path d="M45.0855 25.3283H37.9266V23.9227C37.9266 22.4443 36.724 21.2417 35.2456 21.2417C33.7673 21.2417 32.5647 22.4443 32.5647 23.9227V25.3283H25.4058V29.8582C27.7553 30.4808 29.4923 32.6255 29.4923 35.1682C29.4923 37.711 27.7553 39.8555 25.4058 40.4782V48.0001C30.5088 47.6664 35.2605 45.5208 38.9099 41.8714C42.8924 37.8889 45.0856 32.5939 45.0856 26.9618V25.3283H45.0855Z" fill="#3E5EC0"/>
<path d="M22.5945 48V37.8492H24.0001C25.4784 37.8492 26.681 36.6466 26.681 35.1682C26.681 33.6899 25.4784 32.4873 24.0001 32.4873H22.5945V25.3284H18.0644C17.4418 27.6779 15.2972 29.4149 12.7545 29.4149C10.2119 29.4149 8.06721 27.6779 7.44453 25.3284H2.91455V26.9619C2.91455 32.594 5.10785 37.889 9.0903 41.8716C12.7397 45.5207 17.4914 47.6663 22.5945 48Z" fill="#3E5EC0"/>
</g>
<defs>
<clipPath id="clip0_46_6876">
<rect width="48" height="48" fill="white"/>
</clipPath>
</defs>
</svg>
