<svg width="48" height="48" viewBox="0 0 48 48" fill="none" xmlns="http://www.w3.org/2000/svg">
<g clip-path="url(#clip0_46_6903)">
<path d="M35.8186 40.3845L36.8488 38.4145C38.0954 36.0306 39.6822 33.8479 41.5653 31.9267L43.1214 30.339L42.7973 28.1395C42.4051 25.4783 42.4063 22.7796 42.801 20.1185L43.1272 17.9197L41.5886 16.3502C39.6924 14.4158 38.097 12.2168 36.8467 9.81437L35.8328 7.86644L33.6787 7.50484C30.9987 7.05522 28.4067 6.21203 25.9748 4.99853L24.0203 4.02344L22.0543 5.002C19.6296 6.20884 17.0457 7.04819 14.3744 7.4965L12.207 7.86025L11.1768 9.83022C9.93037 12.2139 8.34356 14.3967 6.46031 16.318L4.90416 17.9057L5.22825 20.1052C5.6205 22.7665 5.61928 25.4652 5.22459 28.1263L4.89844 30.3251L6.43697 31.8947C8.33306 33.8288 9.9285 36.0277 11.1789 38.4304L12.1929 40.3785L14.3469 40.74C17.0271 41.1898 19.6191 42.033 22.0508 43.2464L24.0053 44.2215L25.9713 43.2428C28.3961 42.036 30.98 41.1966 33.6513 40.7483L35.8186 40.3845ZM24.0128 37.7458C16.5009 37.7458 10.3896 31.6343 10.3896 24.1224C10.3896 16.6105 16.5008 10.499 24.0128 10.499C31.5248 10.499 37.6361 16.6104 37.6361 24.1223C37.6361 31.6342 31.5248 37.7458 24.0128 37.7458Z" fill="#3E5EC0"/>
<path d="M24.0144 13.3281C18.0617 13.3281 13.2188 18.1711 13.2188 24.1238C13.2188 30.0766 18.0617 34.9196 24.0144 34.9196C29.9672 34.9196 34.8101 30.0766 34.8101 24.1238C34.8101 18.1711 29.9672 13.3281 24.0144 13.3281ZM22.2695 29.5333L17.5522 24.8161L19.5517 22.8167L22.2696 25.5346L28.5776 19.2266L30.577 21.226L22.2695 29.5333Z" fill="#3E5EC0"/>
<path d="M42.6807 34.877C41.3819 36.353 40.2648 37.9789 39.3516 39.7252L37.67 42.9407L35.5234 43.301L40.2128 47.9903L42.3028 42.2443L47.9977 40.1941L42.6807 34.877Z" fill="#3E5EC0"/>
<path d="M37.6873 5.31206L39.3518 8.50997C40.2525 10.2407 41.3534 11.8534 42.6329 13.3202L47.9975 7.95544L42.3026 5.90531L40.2127 0L35.4375 4.93444L37.6873 5.31206Z" fill="#3E5EC0"/>
<path d="M5.3865 13.3177C6.66619 11.8552 7.76784 10.2469 8.67037 8.52094L10.3521 5.30541L12.5812 4.93125L7.80019 0L5.71922 5.77997L0 7.93097L5.3865 13.3177Z" fill="#3E5EC0"/>
<path d="M10.3346 42.935L8.67009 39.7371C7.75875 37.9859 6.64303 36.3554 5.34441 34.875L0 40.2195L5.71931 42.3706L7.80028 48.0003L12.5018 43.2987L10.3346 42.935Z" fill="#3E5EC0"/>
</g>
<defs>
<clipPath id="clip0_46_6903">
<rect width="48" height="48" fill="white"/>
</clipPath>
</defs>
</svg>
