<svg width="48" height="48" viewBox="0 0 48 48" fill="none" xmlns="http://www.w3.org/2000/svg">
<g clip-path="url(#clip0_46_6854)">
<path d="M7.10791 47.9999H16.0452L17.6945 42.5262C14.8921 41.736 12.2648 40.4175 9.93388 38.6212L7.10791 47.9999Z" fill="#3E5EC0"/>
<path d="M30.3057 42.5263L31.9549 48H40.8922L38.0663 38.6212C35.7353 40.4175 33.1081 41.7361 30.3057 42.5263Z" fill="#3E5EC0"/>
<path d="M30.4914 15.5637C31.4608 16.8912 32.0348 18.5247 32.0348 20.2906C32.0348 24.7208 28.4306 28.325 24.0004 28.325C19.5702 28.325 15.9661 24.7208 15.9661 20.2906C15.9661 15.8605 19.5702 12.2562 24.0004 12.2562C25.6509 12.2562 27.1863 12.757 28.4638 13.6138L31.1957 10.882C29.1993 9.3516 26.7044 8.44055 24.0004 8.44055C17.4663 8.44055 12.1504 13.7565 12.1504 20.2906C12.1504 26.8248 17.4663 32.1406 24.0004 32.1406C30.5345 32.1406 35.8505 26.8247 35.8505 20.2906C35.8505 17.4719 34.8606 14.8804 33.2111 12.844L30.4914 15.5637Z" fill="#3E5EC0"/>
<path d="M24.0002 15.0687C21.1208 15.0687 18.7783 17.4112 18.7783 20.2906C18.7783 23.17 21.1208 25.5125 24.0002 25.5125C26.8796 25.5125 29.2221 23.17 29.2221 20.2906C29.2221 19.3021 28.946 18.3769 28.4669 17.588L24.0002 22.0547L22.0115 20.066L26.4147 15.6628C25.692 15.2842 24.8711 15.0687 24.0002 15.0687Z" fill="#3E5EC0"/>
<path d="M24.0002 0C18.5804 0 13.485 2.11057 9.6525 5.94302C5.82004 9.77548 3.70947 14.8708 3.70947 20.2906C3.70947 25.7104 5.82013 30.8059 9.6525 34.6383C13.4849 38.4708 18.5803 40.5814 24.0002 40.5814C29.4201 40.5814 34.5155 38.4708 38.3478 34.6383C42.1802 30.8059 44.2908 25.7105 44.2908 20.2907C44.2908 15.3918 42.566 10.7582 39.4044 7.08245H43.6962V4.26998H39.7962V0.369933H36.9838V4.69719C33.3447 1.65654 28.8001 0 24.0002 0ZM37.0219 9.03299L35.2073 10.8476C37.3619 13.4006 38.6627 16.6963 38.6627 20.2906C38.6627 28.3756 32.0851 34.9532 24.0002 34.9532C15.9153 34.9532 9.33769 28.3756 9.33769 20.2906C9.33769 12.2057 15.9153 5.62812 24.0002 5.62812C27.4801 5.62812 30.6801 6.84751 33.1972 8.88027L35.0332 7.04429L37.0219 9.03299Z" fill="#3E5EC0"/>
</g>
<defs>
<clipPath id="clip0_46_6854">
<rect width="48" height="48" fill="white"/>
</clipPath>
</defs>
</svg>
