<svg width="48" height="48" viewBox="0 0 48 48" fill="none" xmlns="http://www.w3.org/2000/svg">
<path d="M21 0H23.8125V5.71875H21V0Z" fill="#3E5EC0"/>
<path d="M6.10156 8.08984L8.0898 6.1016L12.0663 10.0781L10.078 12.0663L6.10156 8.08984Z" fill="#3E5EC0"/>
<path d="M0 22.5938H5.71875V25.4062H0V22.5938Z" fill="#3E5EC0"/>
<path d="M6.09375 39.9062L10.0702 35.9298L12.0585 37.918L8.08199 41.8945L6.09375 39.9062Z" fill="#3E5EC0"/>
<path d="M16.9688 42.2812H31.0312V48H16.9688V42.2812Z" fill="#3E5EC0"/>
<path d="M35.9219 37.9219L37.9101 35.9336L41.8866 39.9101L39.8984 41.8984L35.9219 37.9219Z" fill="#3E5EC0"/>
<path d="M42.2812 22.5938H48V25.4062H42.2812V22.5938Z" fill="#3E5EC0"/>
<path d="M35.9297 10.082L39.9062 6.10555L41.8944 8.09379L37.9179 12.0703L35.9297 10.082Z" fill="#3E5EC0"/>
<path d="M24 8.53125C15.4705 8.53125 8.53125 15.4705 8.53125 24C8.53125 29.8255 11.8134 35.1306 16.9688 37.7645V39.4688H31.0312V37.7645C36.1866 35.1305 39.4688 29.8254 39.4688 24C39.4688 15.4705 32.5295 8.53125 24 8.53125ZM32.0104 27.0007L30.6041 29.4368L28.2184 28.0599L25.4062 29.6837V32.4375H22.5938V29.6837L19.7816 28.0599L17.3959 29.4368L15.9896 27.0007L18.375 25.6239V22.3761L15.9896 20.9993L17.3959 18.5632L19.7816 19.9401L22.5938 18.3163V15.5625H25.4062V18.3163L28.2184 19.9401L30.6041 18.5632L32.0104 20.9993L29.625 22.3761V25.6239L32.0104 27.0007Z" fill="#3E5EC0"/>
<path d="M21.1875 22.3746V25.6238L24 27.2484L26.8125 25.6238V22.3746L24 20.75L21.1875 22.3746Z" fill="#3E5EC0"/>
</svg>
