<svg width="39" height="39" viewBox="0 0 39 39" fill="none" xmlns="http://www.w3.org/2000/svg">
<path d="M21.6797 18.2812C22.4563 18.2812 23.0859 17.6517 23.0859 16.875C23.0859 16.0983 22.4563 15.4688 21.6797 15.4688C20.903 15.4688 20.2734 16.0983 20.2734 16.875C20.2734 17.6517 20.903 18.2812 21.6797 18.2812Z" fill="#3E5EC0"/>
<path d="M21.6789 9.84375C17.6743 9.84375 13.7742 14.3921 12.1016 16.8668C13.413 18.7853 17.3228 23.9062 21.6789 23.9062C25.6834 23.9062 29.5835 19.3579 31.2562 16.8832C29.9447 14.9647 26.035 9.84375 21.6789 9.84375ZM21.6789 21.0938C19.3526 21.0938 17.4601 19.2013 17.4601 16.875C17.4601 14.5487 19.3526 12.6562 21.6789 12.6562C24.0052 12.6562 25.8976 14.5487 25.8976 16.875C25.8976 19.2013 24.0052 21.0938 21.6789 21.0938Z" fill="#3E5EC0"/>
<path d="M21.676 0C12.3706 0 4.80103 7.56956 4.80103 16.875C4.80103 21.0223 6.31134 24.8192 8.80209 27.7604L6.20728 30.3552L4.21875 28.3667L0 32.5854L5.96559 38.551L10.1843 34.3323L8.19581 32.3438L10.7906 29.7489C13.7318 32.2397 17.5287 33.75 21.676 33.75C30.9815 33.75 38.551 26.1804 38.551 16.875C38.551 7.56956 30.9815 0 21.676 0ZM34.5644 16.875L34.1332 17.5959C33.9107 17.9681 28.6071 26.7188 21.676 26.7188C14.745 26.7188 9.44137 17.9681 9.21891 17.5959L8.78766 16.875L9.21891 16.1541C9.44137 15.7819 14.745 7.03125 21.676 7.03125C28.6071 7.03125 33.9107 15.7819 34.1332 16.1541L34.5644 16.875Z" fill="#3E5EC0"/>
</svg>
