<svg width="196" height="195" viewBox="0 0 196 195" fill="none" xmlns="http://www.w3.org/2000/svg">
<g clip-path="url(#clip0_46_6936)">
<path d="M194.523 186.732L160.222 118.178C158.116 113.967 152.103 113.967 149.996 118.178L111.558 195H189.41C193.66 195 196.424 190.531 194.523 186.732Z" fill="#C5C5C5"/>
<path d="M52.761 102.943C50.6542 98.7325 44.6412 98.7325 42.5344 102.943L0.610943 186.732C-1.28971 190.531 1.47457 195 5.72408 195H18.3655L58.5934 114.6L52.761 102.943Z" fill="#C5C5C5"/>
<path d="M103.284 58.863V41.8945H139.491C144.474 41.8945 147.072 35.9661 143.692 32.3068L135.837 23.8037L143.692 15.3006C147.072 11.6413 144.475 5.71289 139.491 5.71289H103.284C103.284 2.55785 100.725 0 97.5674 0C94.4102 0 91.8506 2.55785 91.8506 5.71289V58.863C93.6525 58.2311 95.5787 57.8906 97.5674 57.8906C99.5561 57.8906 101.482 58.2307 103.284 58.863Z" fill="#3E5EC0"/>
<path d="M117.764 102.62L102.681 72.4745C100.574 68.2637 94.5608 68.2637 92.454 72.4745L77.3711 102.62L97.5671 114.153L117.764 102.62Z" fill="#C5C5C5"/>
<path d="M122.885 112.855L100.404 125.693C98.646 126.696 96.4885 126.696 94.7312 125.693L72.2499 112.855L31.1489 195H98.7749L131.38 129.835L122.885 112.855Z" fill="#C5C5C5"/>
</g>
<defs>
<clipPath id="clip0_46_6936">
<rect width="195.135" height="195" fill="white"/>
</clipPath>
</defs>
</svg>
