<svg width="260" height="260" viewBox="0 0 260 260" fill="none" xmlns="http://www.w3.org/2000/svg">
<path d="M182.79 232.871L205.897 221.853L224.088 260L241.963 251.476L223.773 213.329L246.879 202.31L181.83 148.379L182.79 232.871Z" fill="#3E5EC0"/>
<path d="M167.04 187.432C155.099 193.97 141.41 197.695 126.863 197.695C80.5718 197.695 42.9109 160.034 42.9109 113.742C42.9109 67.4507 80.5718 29.7898 126.863 29.7898C173.155 29.7898 210.816 67.4507 210.816 113.742C210.816 125.529 208.368 136.753 203.964 146.941L227.644 166.574C236.112 150.472 240.606 132.454 240.606 113.742C240.606 83.3604 228.774 54.7973 207.291 33.3143C185.808 11.8312 157.245 0 126.863 0C96.4814 0 67.9184 11.8312 46.4354 33.3143C24.9523 54.7973 13.1211 83.3604 13.1211 113.742C13.1211 144.124 24.9523 172.687 46.4354 194.17C67.9184 215.653 96.4819 227.484 126.863 227.484C140.946 227.484 154.634 224.93 167.41 220.062L167.04 187.432Z" fill="#C5C5C5"/>
<path d="M126.863 45.0232C88.9712 45.0232 58.144 75.8504 58.144 113.742C58.144 151.634 88.9712 182.461 126.863 182.461C141.763 182.461 155.567 177.691 166.837 169.602L166.224 115.652L191.625 136.712C194.183 129.526 195.582 121.795 195.582 113.742C195.583 75.8504 164.755 45.0232 126.863 45.0232ZM133.687 162.489H118.454V148.861H133.687V162.489ZM142.206 119.146C136.951 122.476 133.687 128.581 133.687 135.08V139.698H118.454V135.08C118.454 123.235 124.285 112.468 134.051 106.278C138.607 103.391 141.204 98.448 140.999 93.0559C140.705 85.3093 134.407 79.0113 126.661 78.7173C122.544 78.5634 118.663 80.0396 115.711 82.8811C112.758 85.7246 111.131 89.5472 111.131 93.6455H95.8978C95.8978 85.3687 99.1821 77.6484 105.146 71.9065C111.107 66.1671 118.955 63.1859 127.239 63.4946C142.896 64.0892 155.627 76.8197 156.222 92.4776C156.628 103.19 151.258 113.408 142.206 119.146Z" fill="#C5C5C5"/>
</svg>
